<svg width="258" height="92" viewBox="0 0 258 92" fill="none" xmlns="http://www.w3.org/2000/svg">
<path d="M67.4899 26.9667C67.4899 26.9667 105.224 1.51692 131.311 1.51692C131.311 1.51692 162.718 -3.64709 196.88 5.08079C231.041 13.8087 243.66 25.1253 253.131 21.8027L213.341 23.0325L67.4899 26.9667V26.9667Z" fill="#65617D"/>
<path opacity="0.1" d="M67.4899 26.9667C67.4899 26.9667 105.224 1.51692 131.311 1.51692C131.311 1.51692 162.718 -3.64709 196.88 5.08079C231.041 13.8087 243.66 25.1253 253.131 21.8027L213.341 23.0325L67.4899 26.9667V26.9667Z" fill="#65617D"/>
<path d="M245.346 65.9178H15.2159L21.543 39.1566L60.6769 28.1729L245.346 33.2961V65.9178Z" fill="#1E1E24"/>
<path d="M257.46 49.1959V57.7369C257.46 57.7369 250.628 62.9689 250.006 67.0661C250.006 67.0661 240.223 69.6889 237.43 69.6889C237.175 69.6889 236.898 69.6889 236.609 69.7195C237.045 68.4833 237.386 67.2119 237.629 65.9178C238.314 62.2862 238.228 58.5395 237.376 54.9474C236.525 51.3553 234.929 48.0073 232.704 45.1446C230.479 42.2819 227.681 39.9758 224.51 38.3923C221.339 36.8089 217.875 35.9876 214.368 35.9876C210.86 35.9876 207.396 36.8089 204.225 38.3923C201.054 39.9758 198.256 42.2819 196.031 45.1446C193.806 48.0073 192.21 51.3553 191.359 54.9474C190.507 58.5395 190.421 62.2862 191.106 65.9178C191.435 67.6685 191.941 69.3769 192.615 71.0139H179.35C179.35 71.0139 179.227 71.058 179.028 71.1498C178.317 71.4895 176.64 72.3864 176.399 73.7963H66.46L64.2073 73.7759C64.6861 72.9275 65.116 72.0494 65.4946 71.1464C66.201 69.4737 66.7257 67.7219 67.0586 65.9246C67.713 62.4923 67.6788 58.9534 66.9583 55.5359C66.2377 52.1185 64.8468 48.8983 62.8753 46.0831C60.9037 43.2678 58.3951 40.9199 55.5114 39.1908C52.6276 37.4616 49.4326 36.3896 46.1323 36.0437C42.8321 35.6979 39.4998 36.0859 36.3503 37.1828C33.2008 38.2797 30.304 40.0612 27.8466 42.4123C25.3891 44.7634 23.4257 47.6321 22.0828 50.8333C20.7399 54.0345 20.0473 57.4973 20.0497 60.9984C20.0496 62.6489 20.2027 64.2954 20.5067 65.9144C21.0253 68.6556 21.9761 71.2855 23.3194 73.6944C21.7489 73.2901 18.3215 72.1418 18.3215 72.1418C18.3215 72.1418 3.72673 70.5042 0 67.0457L0.563193 66.6346L2.95113 64.9122L1.86337 60.4956C1.73207 60.3093 1.62391 60.1061 1.54154 59.8908C1.2519 59.1536 0.997657 57.7844 2.02106 56.0654C3.57226 53.4426 2.79666 44.0998 2.79666 44.0998C2.79666 44.0998 23.9148 28.6927 65.53 25.2477C65.53 25.2477 66.5244 26.0631 68.5777 26.2329C69.9679 26.3519 71.8442 26.1718 74.2289 25.2477C74.2289 25.2477 77.6435 26.8852 92.2511 18.0351C92.2511 18.0351 117.099 0.00175057 149.71 1.64608C149.71 1.64608 183.25 -0.487472 211.822 11.1588C224.135 16.1733 233.503 18.847 240.181 20.2603C246.347 21.5683 250.219 21.8095 251.992 21.8299H252.031C252.61 21.8299 252.954 21.8299 253.077 21.8299H253.128C253.128 21.8299 253.128 25.7335 253.324 30.3438V30.3676C253.395 31.9711 253.492 33.6596 253.627 35.3006V35.4025C254 39.972 254.644 44.1236 255.761 44.9457L257.46 49.1959V49.1959Z" fill="#33323D"/>
<path d="M6.15322 43.7262C6.15322 43.7262 15.5087 36.021 27.1555 37.6619C27.1555 37.6619 16.5578 46.5155 11.7819 45.9413L10.9677 45.2041L6.14035 45.4895C6.14035 45.4895 5.41946 44.3004 6.15322 43.7262Z" fill="#65617D"/>
<path opacity="0.2" d="M15.2352 57.0571V61.6062C15.2352 61.6062 14.9133 65.9515 11.1963 66.1145L0.57605 66.6683L2.96077 64.9458L1.873 60.5292C1.74112 60.3446 1.63291 60.1425 1.55118 59.9279C2.51665 58.9902 4.79195 57.4071 9.4198 57.0673L15.2352 57.0571Z" fill="white"/>
<path opacity="0.2" d="M64.6545 37.9911L72.8064 37.6514C72.8064 37.6514 69.5077 40.3965 67.1776 40.6445C64.8476 40.8925 64.6545 37.9911 64.6545 37.9911Z" fill="white"/>
<path opacity="0.2" d="M81.8143 64.0965C81.8143 64.0965 155.535 53.2759 173.354 56.7174C173.354 56.7174 178.594 57.0877 180.576 59.2994C182.558 61.5111 180.576 60.0774 180.576 60.0774L81.8143 64.0965Z" fill="white"/>
<path opacity="0.5" d="M123.082 33.7275C123.082 33.7275 124.015 31.8828 125.528 31.842L135.35 31.3086C135.35 31.3086 135.195 32.7423 133.448 33.2757L123.082 33.7275Z" fill="#33323D"/>
<path opacity="0.5" d="M179.916 30.6122C179.916 30.6122 180.849 28.7674 182.362 28.7267L192.184 28.1797C192.184 28.1797 192.03 29.6134 190.282 30.1468L179.916 30.6122Z" fill="#33323D"/>
<path d="M146.379 5.33552L138.842 26.2022L111.667 26.2328H104.67H98.5846H93.3228H87.3625C87.3625 26.2328 90.9927 23.4198 96.8403 19.8356C98.7712 18.6465 100.963 17.3758 103.341 16.0984C105.53 14.9161 107.885 13.7203 110.36 12.5855C112.291 11.6886 114.325 10.8257 116.404 10.0205C125.83 6.38191 136.425 3.9392 146.379 5.33552V5.33552Z" fill="#65617D"/>
<path d="M189.078 20.5726C189.078 20.5726 177.724 22.3495 166.889 23.6642C162.747 24.1671 158.682 24.6019 155.354 24.8431L154.891 24.8771C153.604 24.9654 152.41 25.0232 151.396 25.0436C149.787 25.0742 148.583 24.9994 147.981 24.7956L151.113 4.83594C151.113 4.83594 154.975 4.8801 160.687 5.17568L161.936 5.24702C163.123 5.31836 164.375 5.3999 165.682 5.49503C167.548 5.63093 169.515 5.794 171.542 5.99105C181.332 6.93892 192.422 8.64101 199.444 11.7054C214.387 18.2352 189.078 20.5726 189.078 20.5726V20.5726Z" fill="#65617D"/>
<path d="M241.407 30.6122V35.9394C241.407 35.9394 233.255 36.0617 235.003 34.3426C236.134 33.2011 237.161 31.9498 238.07 30.6055L241.407 30.6122Z" fill="#65617D"/>
<path d="M253.621 35.3958L247.001 35.9427V29.5387C247.001 29.5387 250.068 24.9896 253.135 30.0313L253.312 30.3269L253.621 35.3958Z" fill="#65617D"/>
<path d="M43.7908 80.9988C54.2543 80.9988 62.7366 72.0444 62.7366 60.9984C62.7366 49.9525 54.2543 40.998 43.7908 40.998C33.3273 40.998 24.845 49.9525 24.845 60.9984C24.845 72.0444 33.3273 80.9988 43.7908 80.9988Z" fill="#33323D"/>
<path d="M58.9872 60.9811C58.9941 65.1082 57.4991 69.0803 54.8112 72.0771C52.1232 75.0738 48.4475 76.8662 44.5436 77.0839C40.6396 77.3016 36.8055 75.928 33.8334 73.2469C30.8613 70.5658 28.9782 66.782 28.5732 62.6772C28.1681 58.5724 29.2721 54.4601 31.657 51.1899C34.0418 47.9198 37.5254 45.7415 41.3881 45.1052C45.2507 44.4688 49.1974 45.423 52.4127 47.7705C55.6281 50.1181 57.8664 53.6797 58.6654 57.7197C58.8774 58.7925 58.9852 59.8853 58.9872 60.9811Z" fill="#65617D"/>
<path opacity="0.5" d="M43.7682 74.8017C50.9826 74.8017 56.8311 68.6125 56.8311 60.9778C56.8311 53.343 50.9826 47.1538 43.7682 47.1538C36.5538 47.1538 30.7053 53.343 30.7053 60.9778C30.7053 68.6125 36.5538 74.8017 43.7682 74.8017Z" fill="#33323D"/>
<path d="M48.1387 45.5471V46.1315L43.7908 61.328L40.3022 45.2957C42.8907 44.6588 45.5917 44.7455 48.1387 45.5471V45.5471Z" fill="#65617D"/>
<path d="M48.1064 76.4227C45.6161 77.2012 42.9789 77.2971 40.4437 76.7013L43.7875 61.3281L48.1064 76.4227Z" fill="#65617D"/>
<path d="M58.9872 60.9812C58.9894 62.6577 58.744 64.3243 58.2598 65.921H58.1987L43.8035 61.3312L58.6911 57.7231C58.8936 58.7959 58.9928 59.8874 58.9872 60.9812Z" fill="#65617D"/>
<path d="M43.7907 61.3277L29.3954 65.9176H29.2828C28.4811 63.2642 28.3381 60.4379 28.8676 57.7095L43.7907 61.3277V61.3277Z" fill="#65617D"/>
<path d="M43.7682 62.7413C44.6906 62.7413 45.4384 61.9519 45.4384 60.9781C45.4384 60.0043 44.6906 59.2148 43.7682 59.2148C42.8457 59.2148 42.0979 60.0043 42.0979 60.9781C42.0979 61.9519 42.8457 62.7413 43.7682 62.7413Z" fill="#33323D"/>
<path d="M214.252 80.9988C224.715 80.9988 233.197 72.0444 233.197 60.9984C233.197 49.9525 224.715 40.998 214.252 40.998C203.788 40.998 195.306 49.9525 195.306 60.9984C195.306 72.0444 203.788 80.9988 214.252 80.9988Z" fill="#33323D"/>
<path d="M229.451 60.9811C229.458 65.1082 227.963 69.0803 225.275 72.0771C222.587 75.0738 218.912 76.8662 215.008 77.0839C211.104 77.3016 207.27 75.928 204.298 73.2469C201.326 70.5658 199.442 66.782 199.037 62.6772C198.632 58.5724 199.736 54.4601 202.121 51.1899C204.506 47.9198 207.99 45.7415 211.852 45.1052C215.715 44.4688 219.662 45.423 222.877 47.7705C226.092 50.1181 228.331 53.6797 229.13 57.7197C229.342 58.7925 229.449 59.8853 229.451 60.9811Z" fill="#65617D"/>
<path opacity="0.5" d="M214.232 74.8017C221.447 74.8017 227.295 68.6125 227.295 60.9778C227.295 53.343 221.447 47.1538 214.232 47.1538C207.018 47.1538 201.169 53.343 201.169 60.9778C201.169 68.6125 207.018 74.8017 214.232 74.8017Z" fill="#33323D"/>
<path d="M218.599 45.5471V46.1315L214.252 61.328L210.763 45.2957C213.351 44.6588 216.052 44.7455 218.599 45.5471Z" fill="#65617D"/>
<path d="M218.571 76.4227C216.08 77.2012 213.443 77.2971 210.908 76.7013L214.252 61.3281L218.571 76.4227Z" fill="#65617D"/>
<path d="M229.451 60.9812C229.454 62.6577 229.208 64.3243 228.724 65.921H228.65L214.252 61.3277L229.139 57.7197C229.347 58.793 229.452 59.8857 229.451 60.9812Z" fill="#65617D"/>
<path d="M214.252 61.3277L199.856 65.9176H199.744C198.942 63.2642 198.799 60.4379 199.329 57.7095L214.252 61.3277Z" fill="#65617D"/>
<path d="M214.232 62.7413C215.155 62.7413 215.903 61.9519 215.903 60.9781C215.903 60.0043 215.155 59.2148 214.232 59.2148C213.31 59.2148 212.562 60.0043 212.562 60.9781C212.562 61.9519 213.31 62.7413 214.232 62.7413Z" fill="#33323D"/>
<path opacity="0.2" d="M103.344 16.1187L98.5846 26.2463H93.3228L96.8403 19.8558C98.7809 18.6667 100.966 17.3995 103.344 16.1187Z" fill="white"/>
<path opacity="0.2" d="M116.404 10.041L111.663 26.2364H104.667L110.363 12.5993C112.307 11.7091 114.328 10.853 116.404 10.041Z" fill="white"/>
<path opacity="0.2" d="M165.688 5.51224L155.361 24.8468L154.897 24.8807C153.61 24.9691 152.416 25.0268 151.402 25.0472L160.694 5.19629L161.942 5.26763C163.114 5.33558 164.375 5.41712 165.688 5.51224V5.51224Z" fill="white"/>
<path opacity="0.5" d="M179.031 71.1362C178.32 71.476 176.643 72.3729 176.402 73.7828H66.46L64.2073 73.7624C64.6861 72.914 65.116 72.0359 65.4946 71.1328L179.031 71.1362Z" fill="#33323D"/>
<path opacity="0.1" d="M132.975 53.096H132.862C132.862 53.096 136.563 52.0428 132.975 53.096Z" fill="black"/>
<path opacity="0.1" d="M163.57 72.7705V73.3481C163.528 73.1582 163.528 72.9604 163.57 72.7705V72.7705Z" fill="black"/>
<g opacity="0.05">
<path d="M119.519 82.9729C118.621 83.3942 109.652 80.4486 109.652 80.4486C109.542 79.5332 109.552 78.606 109.681 77.6934C109.166 79.0047 109.453 81.1859 109.453 81.1859C109.453 81.1859 118.422 84.1314 119.32 83.7101C119.616 83.5708 119.902 82.7623 120.153 81.7397C119.954 82.3953 119.741 82.8778 119.519 82.9729Z" fill="black"/>
<path d="M114.325 55.9126C114.252 56.1263 114.189 56.344 114.138 56.5649C114.138 56.5649 111.976 70.1986 110.685 75.2505C111.879 71.1499 114.132 57.1255 114.325 55.9126V55.9126Z" fill="black"/>
<path d="M127.591 90.97C127.591 90.97 120.913 80.7778 121.212 76.0215C121.212 76.0215 121.141 76.6126 121.016 77.4484C121.318 82.4222 127.391 91.7106 127.391 91.7106C132.035 91.7106 134.111 88.2385 135.009 84.5931C134.017 87.9497 131.922 90.97 127.591 90.97V90.97Z" fill="black"/>
</g>
</svg>
