<?xml version="1.0"?>
<svg width="1114" height="593.54145" xmlns="http://www.w3.org/2000/svg" xmlns:svg="http://www.w3.org/2000/svg" data-name="Layer 1">
 <title>Vehicle sale</title>
 <g class="layer">
  <title>Layer 1</title>
  <g id="svg_2" opacity="0.8">
   <path d="m447.79,188.61c9.44,13.24 16.69,51.81 18.71,63.43l16.88,-0.35c-0.88,-9.98 -20.51,-50.59 -25.97,-61.73c-3.04,-0.48 -6.28,-0.94 -9.62,-1.35z" fill="#65617d" id="svg_3" transform="translate(-43 -153.22928)"/>
   <rect fill="#dce0ed" height="7.48" id="svg_4" transform="translate(7.92518 269.32977) rotate(-88.91801)" width="10.53" x="235.5" y="181.59"/>
   <path d="m237.13,180l-0.06,3.42a5.71,5.71 0 0 0 1.62,0.25l5.85,0.06l0.07,-3.59l-7.48,-0.14z" id="svg_5" opacity="0.1" transform="translate(-43 -153.22928)"/>
   <path d="m248.27,153.36l-7.06,-0.13a8.47,8.47 0 0 0 -7.95,5.14c-2.16,5.05 -4.06,13.11 0.38,21.27a5.84,5.84 0 0 0 5.07,3.04l9.01,0.09l0.55,-29.41z" fill="#dce0ed" id="svg_6" transform="translate(-43 -153.22928)"/>
   <ellipse cx="247.99" cy="168.07" fill="#f0f0f4" id="svg_7" rx="14.71" ry="7.56" transform="translate(32.27297 259.61394) rotate(-88.91801)"/>
   <rect fill="#dce0ed" height="7.48" id="svg_8" transform="translate(72.37232 336.45264) rotate(-88.91801)" width="9.22" x="302.58" y="182.32"/>
   <path d="m303.54,181.37l-0.05,2.93a5.71,5.71 0 0 0 1.62,0.25l5.85,0.07l0.06,-3.1l-7.48,-0.15z" id="svg_9" opacity="0.1" transform="translate(-43 -153.22928)"/>
   <path d="m314.68,154.74l-7.06,-0.13a8.47,8.47 0 0 0 -7.94,5.14c-2.17,5.05 -4.07,13.11 0.38,21.26a5.84,5.84 0 0 0 5.06,3.05l9.01,0.09l0.55,-29.41z" fill="#dce0ed" id="svg_10" transform="translate(-43 -153.22928)"/>
   <ellipse cx="314.41" cy="169.45" fill="#f0f0f4" id="svg_11" rx="14.71" ry="7.56" transform="matrix(0.01888, -0.99982, 0.99982, 0.01888, 96.05265, 327.36749)"/>
   <path d="m312.7,160.08s2.78,0.5 1.26,4.15a25.43,25.43 0 0 0 -1.78,5.55s-2.82,1.4 -2.62,-3.4s3.14,-6.3 3.14,-6.3z" fill="#dce0ed" id="svg_12" transform="translate(-43 -153.22928)"/>
   <ellipse cx="592.06" cy="375.54" fill="#636780" id="svg_13" rx="48.36" ry="44.12" transform="translate(162.40031 807.17359) rotate(-88.91801)"/>
   <path d="m576.38,329.9c23.06,1.99 40.95,23.34 40.46,49.03c-0.39,20.71 -12.6,38.15 -29.43,44.72c-23.06,-1.98 -40.94,-23.34 -40.46,-49.03c0.39,-20.71 12.61,-38.15 29.43,-44.72z" id="svg_14" opacity="0.1" transform="translate(-43 -153.22928)"/>
   <ellipse cx="248.81" cy="263.36" fill="#636780" id="svg_15" rx="46.69" ry="35.81" transform="translate(-62.19722 353.92207) rotate(-88.91801)"/>
   <path d="m259.66,218.82c14.74,5.97 25.25,24.07 24.85,45.28c-0.43,22.66 -13.17,41.31 -29.67,45.24c-14.74,-5.97 -25.25,-24.07 -24.84,-45.28c0.42,-22.66 13.16,-41.31 29.66,-45.24z" id="svg_16" opacity="0.1" transform="translate(-43 -153.22928)"/>
   <path d="m383.49,255.93l-0.34,-16.96s3.46,-7.25 6.79,-7.85s10.99,-0.87 10.99,-0.87s5.52,24.45 1.39,31.69s-18.83,-6.01 -18.83,-6.01z" fill="#65617d" id="svg_17" transform="translate(-43 -153.22928)"/>
   <path d="m383.49,255.93l-0.34,-16.96s3.46,-7.25 6.79,-7.85s10.99,-0.87 10.99,-0.87s5.52,24.45 1.39,31.69s-18.83,-6.01 -18.83,-6.01z" id="svg_18" opacity="0.1" transform="translate(-43 -153.22928)"/>
   <path d="m444.83,255.26s2.5,-23.46 -10.4,-24.13c-1.66,-0.08 -3.32,-0.15 -4.98,-0.35c-8.93,-1.03 -33.3,-3.38 -30.49,2.26c0,0 5.43,20.54 1.35,25.62l44.52,-3.4z" fill="#65617d" id="svg_19" transform="translate(-43 -153.22928)"/>
   <path d="m261,295.37l-17.33,0.17s-2.38,-31.95 -3.33,-34.46s-1.23,-14.48 2.05,-16.17s14.15,-3.59 14.15,-3.59l7.63,18.34l0.31,16.46l-3.48,19.25z" fill="#65617d" id="svg_20" transform="translate(-43 -153.22928)"/>
   <path d="m261,295.37l-17.33,0.17s-2.38,-31.95 -3.33,-34.46s-1.23,-14.48 2.05,-16.17s14.15,-3.59 14.15,-3.59l7.63,18.34l0.31,16.46l-3.48,19.25z" id="svg_21" opacity="0.1" transform="translate(-43 -153.22928)"/>
   <path d="m303.87,243.21l0.15,-3.55a2.05,2.05 0 0 0 -2.1,-2.14c-8.59,0.2 -39.86,1.11 -45.38,3.8c0,0 5.14,44.59 -1.66,55.06l1.57,35.68l76.61,-4.29l-29.19,-84.56z" fill="#65617d" id="svg_22" transform="translate(-43 -153.22928)"/>
   <path d="m310.91,187.14c-2.12,-0.25 -4.64,-0.52 -7.46,-0.8l-0.08,4.25l7.48,0.15l0.06,-3.6z" id="svg_23" opacity="0.1" transform="translate(-43 -153.22928)"/>
   <path d="m236.94,189.99l-0.01,0.54l7.48,0.14l0.06,-3.24a31.94,31.94 0 0 0 -7.53,2.56z" id="svg_24" opacity="0.1" transform="translate(-43 -153.22928)"/>
   <polygon fill="#dce0ed" id="svg_25" points="154.434 142.065 165.73 142.443 189.878 100.458 193.909 93.449 191.257 75.45 188.878 79.753 154.434 142.065"/>
   <polygon fill="#dce0ed" id="svg_26" points="257.596 91.825 262.115 98.891 276.376 80.353 282.903 71.86 279.178 66.64 276.185 70.133 257.596 91.825"/>
   <path d="m319.18,223.36c-0.02,0.36 -0.05,0.73 -0.08,1.1l0.28,9.12l6.52,-8.49l-3.72,-5.22l-3,3.49z" id="svg_27" opacity="0.1" transform="translate(-43 -153.22928)"/>
   <polygon id="svg_28" opacity="0.1" points="188.878 79.753 189.878 100.458 193.909 93.449 191.257 75.45 188.878 79.753"/>
   <path d="m332.16,236.84s6.37,-41.56 -13.82,-48.18a4.59,4.59 0 0 0 -0.8,-0.17c-4.66,-0.66 -48.13,-6.5 -70.87,-0.96c0,0 -15.49,2.03 -15.49,10.34l4.9,101.64l11.13,0.21l-2.39,-67.19s-4.76,-29.34 4.08,-31.16s48.95,-4.4 62.99,-0.14c0,0 10.35,-2.14 8.21,23.25l0.4,13.64l11.66,-1.28z" fill="#dce0ed" id="svg_29" transform="translate(-43 -153.22928)"/>
   <path d="m298.04,248.58a6.43,6.43 0 0 1 2.72,-5.68c3.16,-2.31 12.85,-7.24 12.85,-7.24l3.11,0.31l8.91,23.35l-1.55,49.21l-17.22,20.49l-8.82,-80.44z" fill="#65617d" id="svg_30" transform="translate(-43 -153.22928)"/>
   <path d="m298.04,248.58a6.43,6.43 0 0 1 2.72,-5.68c3.16,-2.31 12.85,-7.24 12.85,-7.24l3.11,0.31l8.91,23.35l-1.55,49.21l-17.22,20.49l-8.82,-80.44z" id="svg_31" opacity="0.1" transform="translate(-43 -153.22928)"/>
   <path d="m364.18,301.44l0.62,-50.52s1.87,-19.57 -9.84,-20.13c0,0 -27.63,-0.32 -39.7,3.35a2.68,2.68 0 0 0 -1.58,3.85c2.31,4.2 6.13,15.28 7.54,43.56l-0.57,30.28l43.53,-10.39z" fill="#65617d" id="svg_32" transform="translate(-43 -153.22928)"/>
   <polygon fill="#65617d" id="svg_33" points="262.3 179.378 312.583 179.156 312.633 179.157 337.345 179.051 335.103 145.976 321.387 146.216 277.591 155.111 263.863 175.793 262.3 179.378"/>
   <polygon id="svg_34" opacity="0.1" points="262.3 179.378 312.583 179.156 312.633 179.157 337.345 179.051 335.103 145.976 321.387 146.216 277.591 155.111 263.863 175.793 262.3 179.378"/>
   <polygon fill="#65617d" id="svg_35" points="262.3 179.378 312.583 179.156 313.828 157.042 277.591 155.111 263.863 175.793 262.3 179.378"/>
   <path d="m355.63,332.39l24.72,-0.11l-2.25,-33.07s-7.96,12.19 -21.27,11.06l-1.2,22.12z" fill="#fff" id="svg_36" opacity="0.1" transform="translate(-43 -153.22928)"/>
   <path d="m177.84,355.75c0.82,9.49 7.58,8.12 7.58,8.12l1.26,-0.09l12.47,-0.89l-0.22,-14.72a54.11,54.11 0 0 0 -12.65,0.52c-4.68,0.88 -8.8,2.85 -8.44,7.06z" fill="#dce0ed" id="svg_37" transform="translate(-43 -153.22928)"/>
   <path d="m177.84,355.75c0.82,9.49 7.58,8.12 7.58,8.12l1.26,-0.09a12.72,12.72 0 0 0 2.12,-7.07a11.97,11.97 0 0 0 -2.52,-8.02c-4.68,0.88 -8.8,2.85 -8.44,7.06z" id="svg_38" opacity="0.1" transform="translate(-43 -153.22928)"/>
   <path d="m351.62,262.72c-0.29,15.37 8.7,28.01 20.07,28.22s20.84,-12.07 21.13,-27.44s-8.7,-28 -20.07,-28.22s-20.84,12.07 -21.13,27.44zm7.77,1.98c0.21,-11.15 7.41,-20.06 16.08,-19.89s15.53,9.33 15.32,20.48s-7.41,20.05 -16.08,19.89s-15.53,-9.33 -15.32,-20.48z" fill="#636780" id="svg_39" transform="translate(-43 -153.22928)"/>
   <polygon fill="#636780" id="svg_40" points="328.061 118.42 318.246 127.708 314.917 119.169 329.027 111.292 328.061 118.42"/>
   <polygon fill="#6c63ff" id="svg_41" points="315.626 24.424 307.217 25.287 304.035 28.926 308.353 50.248 317.733 84.646 323.868 108.256 328.227 122.605 330.819 141.535 333.523 154.566 342.203 163.58 360.593 142.687 363.676 135.665 371.027 121.349 352.904 112.451 332.884 110.303 323.904 85.943 316.766 57.782 315.626 24.424"/>
   <polyline fill="#65617d" id="svg_42" points="483.428 128.833 492.655 221.083 354.702 212.66 371.505 167.771 398.414 150.994 337.587 150.843 337.732 125.583 362.421 120.731 412.006 117.679 449.253 116.72 484.588 129.022"/>
   <polyline id="svg_43" opacity="0.1" points="483.428 128.833 492.655 221.083 354.702 212.66 371.505 167.771 398.414 150.994 337.587 150.843 337.732 125.583 362.421 120.731 412.006 117.679 449.253 116.72 484.588 129.022"/>
   <path d="m336.07,370.23c-0.43,22.87 6.78,43.84 27.91,41.96c26.6,-0.07 29.03,-18 29.46,-40.88s-12.08,-40.13 -27.93,-40.43s-29,16.48 -29.44,39.35z" fill="#636780" id="svg_44" transform="translate(-43 -153.22928)"/>
   <path d="m335.91,370.27c0.33,-17.71 8.3,-31.77 19.23,-37.07c13.86,2.91 24.24,19.1 23.85,39.97c-0.35,18.74 -2.05,34.17 -17.3,39.16c-19.49,0.33 -26.2,-19.97 -25.78,-42.06z" id="svg_45" opacity="0.1" transform="translate(-43 -153.22928)"/>
   <polygon fill="#6c63ff" id="svg_46" points="266.655 180.592 274.589 190.034 260.039 187.252 249.317 177.019 239.953 157.372 226.398 148.708 192.693 152.644 161.558 153.236 150.265 142.818 163.111 141.317 176.092 141.268 208.693 141.146 247.492 140.846 255.054 162.23 260.824 176.941 266.655 180.592"/>
   <path d="m197.36,369.58c0.65,1.01 22.35,4.75 22.35,4.75l59.93,12.1l103.32,3.45l12.32,-10.08l6.35,1.26l0.26,0.05l84.79,16.71l1.39,-0.17l23.25,-2.87l121.46,-14.98l-1.03,-17.61l-0.6,-10.39l-1.26,-21.58l-1.06,-5.67l-10.76,-1.19l-5.03,-0.56l-78.48,-8.7l-10.26,-1.13l-5.75,-0.64l-56.02,-8.7l-81.94,0.44l0.14,-25.26l-30.51,-100.29c-7.17,1.02 -7.09,5.85 -7.09,5.85l25.8,94.38l-0.75,57.66c-57.47,4.71 -59.08,-7.82 -68.24,-3.78l-10.3,-35.26l-96.37,-1.32c-3.91,4.58 4.09,73.53 4.09,73.53z" fill="#65617d" id="svg_47" transform="translate(-43 -153.22928)"/>
   <polygon fill="#65617d" id="svg_48" points="394.426 168.536 362.616 233.585 352.251 236.711 349.962 226.033 362.113 189.864 374.307 168.987 394.426 168.536"/>
   <polygon id="svg_49" opacity="0.15" points="394.426 168.536 362.616 233.585 352.251 236.711 349.962 226.033 362.113 189.864 374.307 168.987 394.426 168.536"/>
   <ellipse cx="455.96" cy="394.41" fill="#636780" id="svg_50" rx="62.81" ry="55.37" transform="matrix(0.01888, -0.99982, 0.99982, 0.01888, 10.00564, 689.61229)"/>
   <path d="m437.32,335.16c28.94,2.56 51.37,30.28 50.74,63.65c-0.51,26.9 -15.85,49.57 -36.98,58.12c-28.93,-2.57 -51.37,-30.29 -50.74,-63.66c0.51,-26.9 15.86,-49.56 36.98,-58.11z" id="svg_51" opacity="0.1" transform="translate(-43 -153.22928)"/>
   <path d="m606.44,287.4l2.49,12.97l7.64,39.74l36.13,-2.81s2.28,-6.6 -3.32,-9.2c0,0 -1.43,-22.53 -7.96,-29.74a6.78,6.78 0 0 0 -2.58,-1.87l-32.4,-9.09z" fill="#65617d" id="svg_52" transform="translate(-43 -153.22928)"/>
   <path d="m608.93,300.37l7.64,39.74l36.13,-2.81s2.28,-6.6 -3.32,-9.2c0,0 -1.43,-22.53 -7.96,-29.74l-32.49,2.01z" fill="#fff" id="svg_53" opacity="0.1" transform="translate(-43 -153.22928)"/>
   <path d="m525.13,289.35c-4.8,7.72 5.13,79.88 5.13,79.88l88.84,-12.96l-1.97,-63.02c-1.62,-11.33 -8.23,-12.79 -8.23,-12.79c-30.94,-16.37 -102.65,-21.05 -102.65,-21.05c-65.51,1.25 -125.52,19.4 -125.52,19.4c74.65,-10.06 144.4,10.54 144.4,10.54z" fill="#65617d" id="svg_54" transform="translate(-43 -153.22928)"/>
   <path d="m530.26,369.23l88.84,-12.96l-1.97,-63.02c-1.62,-11.33 -8.23,-12.79 -8.23,-12.79s-64.52,-7.37 -83.77,8.89c-4.8,7.72 5.13,79.88 5.13,79.88z" id="svg_55" opacity="0.1" transform="translate(-43 -153.22928)"/>
   <path d="m539.7,365.25l74.28,-11.08l-1.62,-53.77c-1.35,-9.67 -6.88,-10.91 -6.88,-10.91s-53.94,-6.27 -70.05,7.61c-4.01,6.59 4.27,68.15 4.27,68.15z" fill="#65617d" id="svg_56" transform="translate(-43 -153.22928)"/>
   <ellipse cx="546.63" cy="321.17" id="svg_57" opacity="0.1" rx="18.44" ry="10.14" transform="translate(172.1968 708.40806) rotate(-88.91801)"/>
   <ellipse cx="546.64" cy="320.67" fill="#dce0ed" id="svg_58" rx="18.44" ry="10.14" transform="translate(172.70437 707.92846) rotate(-88.91801)"/>
   <path d="m545.57,307.02s4.14,0.74 1.88,6.19a37.88,37.88 0 0 0 -2.65,8.26s-4.2,2.08 -3.9,-5.06s4.67,-9.39 4.67,-9.39z" fill="#f0f0f4" id="svg_59" transform="translate(-43 -153.22928)"/>
   <ellipse cx="601.1" cy="314.88" id="svg_60" opacity="0.1" rx="17.24" ry="9.47" transform="translate(231.91745 756.69902) rotate(-88.91801)"/>
   <ellipse cx="601.11" cy="314.39" fill="#dce0ed" id="svg_61" rx="17.24" ry="9.47" transform="translate(232.42502 756.21942) rotate(-88.91801)"/>
   <path d="m600.03,300.74s4.15,0.74 1.88,6.18a37.88,37.88 0 0 0 -2.65,8.26s-4.19,2.08 -3.89,-5.06s4.66,-9.38 4.66,-9.38z" fill="#f0f0f4" id="svg_62" transform="translate(-43 -153.22928)"/>
   <path d="m558.56,305.77c0.53,6.83 2.9,57.39 2.9,57.39l5.66,-0.83l3.14,-0.46l4.19,-0.62l0.51,-0.08l16.5,-2.43l-2.24,-53.63a6.72,6.72 0 0 0 -6.66,-6.44c-0.17,0.01 -0.33,0.01 -0.5,0.02c-1.14,0.08 -2.37,0.17 -3.65,0.29c-0.54,0.05 -1.08,0.1 -1.64,0.16c-1.58,0.16 -3.22,0.36 -4.82,0.59c-0.82,0.12 -1.63,0.25 -2.42,0.39c-1.35,0.25 -2.65,0.52 -3.85,0.83c-0.82,0.21 -1.6,0.44 -2.31,0.69c-2.99,1.02 -4.95,2.37 -4.81,4.13z" id="svg_63" opacity="0.1" transform="translate(-43 -153.22928)"/>
   <path d="m582.56,298.67l2.08,60.28l1.83,-0.13l-2.06,-59.87a6.75,6.75 0 0 0 -1.85,-0.28z" fill="#65617d" id="svg_64" transform="translate(-43 -153.22928)"/>
   <path d="m576.77,299.14l1.87,60.86l2.82,0.05l-3.05,-61.07c-0.54,0.05 -1.08,0.1 -1.64,0.16z" fill="#65617d" id="svg_65" transform="translate(-43 -153.22928)"/>
   <path d="m569.53,300.12l3.6,61.11l1.83,0.03l0,-0.09l-3.01,-61.44c-0.82,0.12 -1.63,0.25 -2.42,0.39z" fill="#65617d" id="svg_66" transform="translate(-43 -153.22928)"/>
   <path d="m563.37,301.64l3.75,60.69l0,0.11l3.17,-0.27l-0.03,-0.3l-4.58,-60.92c-0.82,0.21 -1.6,0.44 -2.31,0.69z" fill="#65617d" id="svg_67" transform="translate(-43 -153.22928)"/>
   <path d="m630.06,349.84s6.7,-31.41 -7.22,-33.3s-59.85,0.62 -58.72,13.6s2.25,32.7 2.25,32.7l9.51,-1.94s-6.54,-29.79 4.57,-30.7s38.33,-3.51 38.33,-3.51s7.38,-1.11 2.65,24.85l8.63,-1.7z" id="svg_68" opacity="0.1" transform="translate(-43 -153.22928)"/>
   <path d="m630.01,352.83s6.73,-33.41 -7.19,-35.29s-59.84,0.61 -58.72,13.6s2.25,32.7 2.25,32.7l9.51,-1.94s-6.54,-29.79 4.57,-30.7s38.33,-3.52 38.33,-3.52s7.34,0.89 2.61,26.85l8.64,-1.7z" fill="#dce0ed" id="svg_69" transform="translate(-43 -153.22928)"/>
   <path d="m382.96,389.88l12.29,0.06c9.72,-39.37 24.97,-63.68 24.97,-63.68c5.04,-2.57 59.52,-1.2 59.52,-1.2c5.64,1.1 6.79,19.07 6.79,19.07s-4.9,4.06 -0.3,6.81c2.06,1.23 8.89,1.58 16.78,1.33c9.8,-0.33 21.22,-1.6 27.14,-3.32c10.7,-3.13 2.34,-9.43 2.34,-9.43s-1.46,-2.03 -2.25,-13.01a44.33,44.33 0 0 0 -5.72,-18.21c-0.44,-0.77 -0.73,-1.19 -0.73,-1.19a5.75,5.75 0 0 0 -1.92,-1.26c-13.97,-6.14 -83.11,-1.84 -83.11,-1.84l-25.74,7.66c-0.71,0.27 -1.84,2.05 -3.24,4.91c-8.41,17.18 -26.82,73.3 -26.82,73.3z" fill="#65617d" id="svg_70" transform="translate(-43 -153.22928)"/>
   <path d="m382.96,389.88l12.29,0.06c9.72,-39.37 24.97,-63.68 24.97,-63.68c5.04,-2.57 59.52,-1.2 59.52,-1.2c5.64,1.1 6.79,19.07 6.79,19.07s-4.9,4.06 -0.3,6.81c2.06,1.23 8.89,1.58 16.78,1.33c9.8,-0.33 21.22,-1.6 27.14,-3.32c10.7,-3.13 2.34,-9.43 2.34,-9.43s-1.46,-2.03 -2.25,-13.01a44.33,44.33 0 0 0 -5.72,-18.21c-0.44,-0.77 -0.73,-1.19 -0.73,-1.19a5.75,5.75 0 0 0 -1.92,-1.26c-13.97,-6.14 -83.11,-1.84 -83.11,-1.84l-25.74,7.66c-0.71,0.27 -1.84,2.05 -3.24,4.91c-8.41,17.18 -26.82,73.3 -26.82,73.3z" id="svg_71" opacity="0.1" transform="translate(-43 -153.22928)"/>
   <path d="m409.78,316.58c23.79,-8.73 88.79,-2.63 88.79,-2.63c7.03,-5.79 20.04,-5.93 25.95,-5.65c-0.44,-0.77 -0.73,-1.19 -0.73,-1.19a5.75,5.75 0 0 0 -1.92,-1.26c-13.97,-6.14 -83.11,-1.84 -83.11,-1.84l-25.74,7.66c-0.71,0.27 -1.84,2.05 -3.24,4.91z" fill="#65617d" id="svg_72" transform="translate(-43 -153.22928)"/>
   <path d="m494.7,316.37c1.4,5.17 7.16,25.89 7.16,25.89a87.52,87.52 0 0 1 1.15,10.01c9.8,-0.33 21.22,-1.6 27.14,-3.32c10.7,-3.13 2.34,-9.43 2.34,-9.43s-1.46,-2.03 -2.25,-13.01a44.15,44.15 0 0 0 -6.45,-19.4a5.75,5.75 0 0 0 -1.92,-1.26c-9.27,2.01 -28.23,6.6 -27.17,10.52z" fill="#65617d" id="svg_73" transform="translate(-43 -153.22928)"/>
   <path d="m494.7,316.37c1.4,5.17 7.16,25.89 7.16,25.89a87.52,87.52 0 0 1 1.15,10.01c9.8,-0.33 21.22,-1.6 27.14,-3.32c10.7,-3.13 2.34,-9.43 2.34,-9.43s-1.46,-2.03 -2.25,-13.01a44.15,44.15 0 0 0 -6.45,-19.4a5.75,5.75 0 0 0 -1.92,-1.26c-9.27,2.01 -28.23,6.6 -27.17,10.52z" fill="#fff" id="svg_74" opacity="0.1" transform="translate(-43 -153.22928)"/>
   <path d="m350.22,178.52l30.51,100.29l127.24,-18.41l-16.81,-60.28s-2.6,-13.76 -9.19,-14.88c0,0 -101.72,-19.62 -131.75,-6.72zm14.16,15.72c-4.11,-13.54 56.34,-6.79 56.34,-6.79c8.14,-0.63 17.95,0.06 27.07,1.16c3.34,0.41 6.58,0.87 9.62,1.35c6.78,1.06 12.53,2.2 15.97,2.92c2.19,0.45 3.45,0.74 3.45,0.74c12.01,3.97 17.92,53.94 17.92,53.94c0.9,5.25 -5.31,4.01 -5.31,4.01l-0.4,0.01l-5.66,0.11l-16.88,0.35l-82.3,1.66c-4.85,-0.59 -5.49,-6.34 -5.49,-6.34c-2.54,-4.16 -14.33,-53.12 -14.33,-53.12z" fill="#65617d" id="svg_75" transform="translate(-43 -153.22928)"/>
   <path d="m489.04,251.58l0.4,-0.01s6.21,1.24 5.31,-4.01c0,0 -5.91,-49.97 -17.92,-53.94c0,0 -1.26,-0.29 -3.45,-0.74c4.23,8.64 17.76,38.23 15.66,58.7z" fill="#65617d" id="svg_76" transform="translate(-43 -153.22928)"/>
   <path d="m489.04,251.58l0.4,-0.01s6.21,1.24 5.31,-4.01c0,0 -5.91,-49.97 -17.92,-53.94c0,0 -1.26,-0.29 -3.45,-0.74c4.23,8.64 17.76,38.23 15.66,58.7z" id="svg_77" opacity="0.1" transform="translate(-43 -153.22928)"/>
   <path d="m475.55,374.3a8.02,8.02 0 0 0 7.43,4.35l2.54,-0.06l23.98,-0.58l8.64,-0.21l7.98,-0.51l105.63,-15.1l-0.6,-10.39l-12.15,1.51l-5.02,0.62l-74.55,9.23l-9.81,1.22l-4.76,0.59l-20.1,-0.53l-21.77,-0.57a8.22,8.22 0 0 0 -3.22,0.56a7.82,7.82 0 0 0 -4.29,3.93a6.57,6.57 0 0 0 0.07,5.94z" id="svg_78" opacity="0.1" transform="translate(-43 -153.22928)"/>
   <path d="m475.53,375.3a8.02,8.02 0 0 0 7.43,4.35l35.16,-0.85l7.98,-0.51l112.65,-16.1l8.85,-1.27l4.83,-0.69c9.5,-1.82 6.86,-11.34 6.86,-11.34c-0.58,-4.33 -16.79,-8.63 -22.11,-8.56c-3.57,0.04 -4.18,5.54 -4.18,9.15c-0.01,1.76 0.13,3.07 0.13,3.07l-5.27,0.65l-103.02,12.76l-41.86,-1.09a8.05,8.05 0 0 0 -7.52,4.48a6.57,6.57 0 0 0 0.07,5.95z" fill="#dce0ed" id="svg_79" transform="translate(-43 -153.22928)"/>
   <path d="m644.71,346.46s-4.59,5.39 -11.58,6.09c0,0 2.94,-6.09 11.58,-6.09z" id="svg_80" opacity="0.1" transform="translate(-43 -153.22928)"/>
   <path d="m645.58,361.93s14.79,-0.05 14.64,7.92s-9.48,9.13 -9.48,9.13l-132.56,22.92l-37.56,-0.04s-12.93,-10.72 0.78,-15.11l37.87,1.71l126.37,-20.71s-3.24,-4.55 -0.06,-5.82z" id="svg_81" opacity="0.1" transform="translate(-43 -153.22928)"/>
   <path d="m480.6,402.86l37.56,0.04l117.87,-20.38l8.63,-1.5l6.06,-1.04s9.33,-1.16 9.48,-9.13c0.11,-5.72 -7.48,-7.31 -11.78,-7.75c-1.68,-0.18 -2.86,-0.17 -2.86,-0.17c-3.18,1.26 0.06,5.81 0.06,5.81l-4.6,0.76l-121.77,19.96l-37.86,-1.71c-13.71,4.39 -0.79,15.11 -0.79,15.11z" fill="#dce0ed" id="svg_82" transform="translate(-43 -153.22928)"/>
   <path d="m634.57,355.24l-7.74,-3.64l-3.99,-0.24l-0.3,33.57l12.34,-2.26l5.22,-3.23l2.75,-13.91s-0.88,-5.83 -1.37,-6.34s-6.91,-3.95 -6.91,-3.95z" fill="#dce0ed" id="svg_83" transform="translate(-43 -153.22928)"/>
   <path d="m634.57,355.24l-7.74,-3.64l-3.99,-0.24l-0.3,33.57l12.34,-2.26l5.22,-3.23l2.75,-13.91s-0.88,-5.83 -1.37,-6.34s-6.91,-3.95 -6.91,-3.95z" id="svg_84" opacity="0.1" transform="translate(-43 -153.22928)"/>
   <path d="m636.03,382.52c-0.1,0.11 -0.15,0.17 -0.15,0.17l8.67,-1.5c0.04,-0.06 0.07,-0.11 0.11,-0.17c4.69,-7.25 5.19,-13.21 3.76,-17.92c-1.68,-0.18 -2.86,-0.17 -2.86,-0.17c-3.18,1.26 0.06,5.81 0.06,5.81l-4.6,0.76c0.18,6.57 -4.13,12 -4.99,13.02z" id="svg_85" opacity="0.1" transform="translate(-43 -153.22928)"/>
   <path d="m623.84,351.38q2.17,0.88 4.02,1.82c5.54,2.8 8.93,5.89 10.89,8.99l8.85,-1.27c-3.68,-8.03 -12.75,-11.83 -12.75,-11.83l-1.85,0.39l-9.16,1.9z" id="svg_86" opacity="0.1" transform="translate(-43 -153.22928)"/>
   <path d="m633.86,349.08s24.07,10.09 9.7,32.09l-8.68,1.5s17.49,-19.28 -12.04,-31.31l11.02,-2.28z" fill="#dce0ed" id="svg_87" transform="translate(-43 -153.22928)"/>
   <polygon fill="#dce0ed" id="svg_88" points="532.836 205.554 523.871 205.052 524.685 241.133 539.19 238.748 545.393 235.873 548.353 228.783 550.481 221.676 545.786 215.106 540.372 211.347 532.836 205.554"/>
   <polygon id="svg_89" opacity="0.1" points="532.836 205.554 523.871 205.052 524.685 241.133 539.19 238.748 545.393 235.873 548.353 228.783 550.481 221.676 545.786 215.106 540.372 211.347 532.836 205.554"/>
   <ellipse cx="576.48" cy="377.41" fill="#dce0ed" id="svg_90" rx="7.31" ry="4.32" transform="translate(145.25334 793.4326) rotate(-88.91801)"/>
   <path d="m617.49,388.11a2.34,2.34 0 0 1 1.12,3.3c-1.02,1.81 -2.24,4.16 -2.14,4.79c0.17,1.06 -2.18,0.14 -2.49,-0.11s-4.61,-0.09 -4.8,-3.02a5.07,5.07 0 0 1 2.39,-4.44l-0.88,-6.44l5.93,-0.39l-0.17,5.86l1.04,0.45z" fill="#636780" id="svg_91" transform="translate(-43 -153.22928)"/>
   <path d="m617.49,388.11a2.34,2.34 0 0 1 1.12,3.3c-1.02,1.81 -2.24,4.16 -2.14,4.79c0.17,1.06 -2.18,0.14 -2.49,-0.11s-4.61,-0.09 -4.8,-3.02a5.07,5.07 0 0 1 2.39,-4.44l-0.88,-6.44l5.93,-0.39l-0.17,5.86l1.04,0.45z" id="svg_92" opacity="0.1" transform="translate(-43 -153.22928)"/>
   <path d="m615.88,387.96s-2.12,6.82 -1.26,7.08s1.26,-7.08 1.26,-7.08z" id="svg_93" opacity="0.1" transform="translate(-43 -153.22928)"/>
   <path d="m613.67,386.3s-2.13,6.81 -1.26,7.08s1.26,-7.08 1.26,-7.08z" id="svg_94" opacity="0.1" transform="translate(-43 -153.22928)"/>
   <path d="m590.17,365.2l2.94,20.67s4.12,-0.49 6.4,-0.93a4.56,4.56 0 0 0 1.44,-0.42c0.11,-0.11 0.36,-0.1 0.68,-0.03l0.01,0c1.1,0.25 3.05,1.2 3.45,0.44a0.68,0.68 0 0 1 0.11,-0.16l0.01,-0.01c0.4,-0.41 1.15,-0.09 1.88,0.03a1.59,1.59 0 0 0 1.16,-0.13c0.62,-0.4 1.85,0.28 2.87,0.52c0.64,0.15 1.19,0.13 1.45,-0.44a1.35,1.35 0 0 1 1.01,-0.69l0.01,0c0.96,-0.22 2.29,-0.03 3.07,-0.18c0.31,-0.05 0.52,-0.16 0.59,-0.37c0.16,-0.45 1.02,-0.65 1.94,-0.8c1.12,-0.2 2.31,-0.33 2.41,-0.78c0.03,-0.15 0.14,-0.21 0.31,-0.21a10.03,10.03 0 0 1 1.81,0.48l0,0c0.5,0.13 0.91,0.15 1.04,-0.21c0.13,-0.39 0.71,-0.34 1.36,-0.16c0.52,0.14 1.1,0.35 1.55,0.46c0.4,0.1 0.69,0.12 0.74,-0.07c0.18,-0.66 2.31,0.88 2.83,-0.44s7.51,-10 -1.08,-21.63c0,0 -2.39,0.12 -4.21,0.42a6.57,6.57 0 0 0 -1.77,0.46c-0.01,0 -0.01,0 -0.02,0.01a10.23,10.23 0 0 1 -3.21,0.31a4.18,4.18 0 0 0 -1.79,0.39a1.17,1.17 0 0 0 -0.51,0.52c-0.29,0.63 -0.93,0.74 -1.63,0.69c-0.94,-0.07 -1.98,-0.45 -2.37,-0.27a0.24,0.24 0 0 1 -0.03,0.02c-0.71,0.28 -3.31,-0.06 -3.76,0.37a0.25,0.25 0 0 0 -0.04,0.04c-0.19,0.27 -1.21,-0.04 -2.25,-0.2l0,0a2.54,2.54 0 0 0 -2.07,0.29a2.26,2.26 0 0 1 -1.63,0.44a9.34,9.34 0 0 0 -2.11,0.05a0.84,0.84 0 0 0 -0.43,0.26c-0.43,0.51 -1.44,0.42 -2.34,0.45a2.39,2.39 0 0 0 -1.33,0.31a1.18,1.18 0 0 1 -0.48,0.19a14.27,14.27 0 0 1 -4.01,-0.28l-4,0.59z" fill="#636780" id="svg_95" transform="translate(-43 -153.22928)"/>
   <path d="m626.12,381.82c0.52,0.14 1.1,0.35 1.55,0.46c6.95,-10.34 1.41,-18.39 -1.72,-21.72a6.57,6.57 0 0 0 -1.77,0.46c6.63,7.95 3.3,17.66 1.94,20.8z" id="svg_96" opacity="0.1" transform="translate(-43 -153.22928)"/>
   <path d="m621.91,381.71a10.03,10.03 0 0 1 1.81,0.48l0,0c5.97,-10.1 0.17,-17.85 -2.77,-20.85a4.18,4.18 0 0 0 -1.79,0.39c6.33,7.19 4.24,15.94 2.75,19.98z" id="svg_97" opacity="0.1" transform="translate(-43 -153.22928)"/>
   <path d="m616.66,383.87c0.3,-0.05 0.52,-0.16 0.59,-0.37c0.16,-0.45 1.02,-0.65 1.94,-0.8c5.24,-9.16 0.84,-16.35 -2.17,-19.76c-0.94,-0.07 -1.98,-0.45 -2.37,-0.27a0.24,0.24 0 0 1 -0.03,0.02c6.99,8.15 3.35,18.22 2.04,21.18z" id="svg_98" opacity="0.1" transform="translate(-43 -153.22928)"/>
   <path d="m611.12,385.18c0.64,0.15 1.19,0.13 1.45,-0.44a1.35,1.35 0 0 1 1.01,-0.69l0.01,0c6.1,-10.19 0.22,-18 -2.73,-20.99a0.25,0.25 0 0 0 -0.04,0.04c-0.19,0.27 -1.21,-0.04 -2.25,-0.2c8.24,8.63 3.71,19.81 2.55,22.28z" id="svg_99" opacity="0.1" transform="translate(-43 -153.22928)"/>
   <path d="m605.21,384.76c0.4,-0.41 1.15,-0.09 1.88,0.03c6.35,-10.11 0.84,-17.94 -2.22,-21.16a9.34,9.34 0 0 0 -2.11,0.05c7.04,7.87 3.89,17.67 2.45,21.08z" id="svg_100" opacity="0.1" transform="translate(-43 -153.22928)"/>
   <path d="m599.51,384.94a4.56,4.56 0 0 0 1.44,-0.42c0.11,-0.11 0.36,-0.1 0.68,-0.03l0.01,0c5.63,-9.23 1.41,-16.53 -1.65,-20.1a2.39,2.39 0 0 0 -1.33,0.31a1.18,1.18 0 0 1 -0.48,0.19c5.82,7.81 2.64,17.03 1.33,20.05z" id="svg_101" opacity="0.1" transform="translate(-43 -153.22928)"/>
   <ellipse cx="438.16" cy="397.07" fill="#636780" id="svg_102" rx="39.88" ry="27.09" transform="translate(-10.10717 674.42711) rotate(-88.91801)"/>
   <ellipse cx="439.07" cy="397.67" id="svg_103" opacity="0.1" rx="32.32" ry="19.69" transform="translate(-9.82007 675.91719) rotate(-88.91801)"/>
   <ellipse cx="439.09" cy="396.67" fill="#f0f0f4" id="svg_104" rx="32.32" ry="19.69" transform="translate(-8.80493 674.95799) rotate(-88.91801)"/>
   <ellipse cx="435.92" cy="374.92" fill="#636780" id="svg_105" rx="3.99" ry="2.33" transform="translate(9.83722 650.45785) rotate(-88.91801)"/>
   <ellipse cx="425.96" cy="409.64" fill="#636780" id="svg_106" rx="3.99" ry="2.33" transform="translate(-34.64517 674.55515) rotate(-88.91801)"/>
   <ellipse cx="451.36" cy="393.49" fill="#636780" id="svg_107" rx="3.99" ry="2.33" transform="translate(6.41364 684.11618) rotate(-88.91801)"/>
   <ellipse cx="444.11" cy="416.63" fill="#636780" id="svg_108" rx="3.99" ry="2.33" transform="translate(-23.82746 699.56069) rotate(-88.91801)"/>
   <path d="m241.35,319.56s-20.42,51.47 -19.48,54.73c0,0 -8.32,4.82 -10.29,3.54s0.21,-24.18 0.21,-24.18l4.12,-20.11l4.46,-11.89l20.98,-2.09z" fill="#65617d" id="svg_109" transform="translate(-43 -153.22928)"/>
   <path d="m241.35,319.56s-20.42,51.47 -19.48,54.73c0,0 -8.32,4.82 -10.29,3.54s0.21,-24.18 0.21,-24.18l4.12,-20.11l4.46,-11.89l20.98,-2.09z" id="svg_110" opacity="0.15" transform="translate(-43 -153.22928)"/>
   <ellipse cx="423.05" cy="387.97" fill="#636780" id="svg_111" rx="3.99" ry="2.33" transform="translate(-15.84781 650.38873) rotate(-88.91801)"/>
   <ellipse cx="435.49" cy="397.85" fill="#636780" id="svg_112" rx="9.47" ry="6.81" transform="translate(-13.51098 672.5194) rotate(-88.91801)"/>
   <path d="m218.36,388.43c-0.57,30 8.89,57.51 36.61,55.04c34.9,-0.09 38.09,-23.61 38.65,-53.62s-15.86,-52.65 -36.64,-53.04s-38.05,21.61 -38.62,51.62z" fill="#636780" id="svg_113" transform="translate(-43 -153.22928)"/>
   <path d="m218.14,388.48c0.44,-23.23 10.89,-41.67 25.23,-48.63c18.18,3.81 31.81,25.06 31.29,52.44c-0.46,24.59 -2.69,44.82 -22.69,51.37c-25.57,0.44 -34.37,-26.2 -33.83,-55.18z" id="svg_114" opacity="0.1" transform="translate(-43 -153.22928)"/>
   <path d="m203.9,375.44s4.9,4.33 7.7,1.39c0,0 7.75,-53.7 16.22,-53.79l29.17,0.3s3.46,1.56 4.83,8.07l17.84,54.02l103.32,3.45l8.2,-16.38l-85.49,-1.37l-0.01,-0.04c-0.43,-1.66 -13.74,-52.93 -23.22,-59.46c-0.01,0 -0.01,0 -0.02,-0.01a4.17,4.17 0 0 0 -1.04,-0.53s-35.55,-5.41 -47.32,-2.39c0,0 -12.27,2.51 -15.33,6.19a0.3,0.3 0 0 0 -0.02,0.03c-0.41,0.41 -5.13,5.54 -6.85,20.54l-7.98,39.98z" id="svg_115" opacity="0.1" transform="translate(-43 -153.22928)"/>
   <path d="m203.88,376.44s4.9,4.33 7.7,1.39c0,0 7.75,-53.7 16.22,-53.79l29.17,0.3s3.46,1.56 4.83,8.07l17.84,54.02l103.32,3.45l8.2,-16.39l-85.48,-1.36l-0.01,-0.04c-0.44,-1.66 -13.75,-52.93 -23.23,-59.46c-0.01,0 -0.01,0 -0.02,-0.01a4.17,4.17 0 0 0 -1.04,-0.53s-35.55,-5.41 -47.32,-2.39c0,0 -12.26,2.51 -15.33,6.19a0.3,0.3 0 0 0 -0.02,0.03c-0.41,0.41 -5.13,5.53 -6.85,20.53l-7.98,39.99z" fill="#65617d" id="svg_116" transform="translate(-43 -153.22928)"/>
   <path d="m203.88,376.44s4.9,4.33 7.7,1.39c0,0 7.75,-53.7 16.22,-53.79l29.17,0.3s3.46,1.56 4.83,8.07l17.84,54.02l103.32,3.45l8.2,-16.39l-85.48,-1.36l-0.01,-0.04c-0.44,-1.66 -13.75,-52.93 -23.23,-59.46c-0.01,0 -0.01,0 -0.02,-0.01a4.17,4.17 0 0 0 -1.04,-0.53s-35.55,-5.41 -47.32,-2.39c0,0 -12.26,2.51 -15.33,6.19a0.3,0.3 0 0 0 -0.02,0.03c-0.41,0.41 -5.13,5.53 -6.85,20.53l-7.98,39.99z" id="svg_117" opacity="0.1" transform="translate(-43 -153.22928)"/>
   <path d="m268.29,318.82c2.4,4.78 22.73,63.5 22.73,63.5l14.66,-10.19l-0.01,-0.04c-0.44,-1.66 -13.77,-52.99 -23.25,-59.47c-6.26,0.95 -15.76,2.95 -14.13,6.2z" fill="#65617d" id="svg_118" transform="translate(-43 -153.22928)"/>
   <path d="m296.7,292.68l10.99,38.6l61.09,-0.59l-0.6,5.72s-47.98,6.08 -68.24,-3.78l-10.3,-35.26l-96.38,-1.32l18.45,-3.98l84.99,0.61z" fill="#65617d" id="svg_119" transform="translate(-43 -153.22928)"/>
   <path d="m296.7,292.68l10.99,38.6l61.09,-0.59l-0.6,5.72s-47.98,6.08 -68.24,-3.78l-10.3,-35.26l-96.38,-1.32l18.45,-3.98l84.99,0.61z" fill="#fff" id="svg_120" opacity="0.1" transform="translate(-43 -153.22928)"/>
   <path d="m581.82,358.56s32.42,17.07 7.87,32.06l-6.5,1.38s24.08,-16.67 -15.32,-33.7l13.95,0.26z" id="svg_121" opacity="0.1" transform="translate(-43 -153.22928)"/>
   <path d="m580.83,358.55s32.42,17.06 7.87,32.05l-6.51,1.38s24.08,-16.67 -15.32,-33.7l13.96,0.27z" fill="#dce0ed" id="svg_122" transform="translate(-43 -153.22928)"/>
   <ellipse cx="241.46" cy="393.1" fill="#636780" id="svg_123" rx="31.16" ry="18.2" transform="translate(-199.13515 473.86652) rotate(-88.91801)"/>
   <ellipse cx="242.06" cy="393.79" id="svg_124" opacity="0.1" rx="25.25" ry="13.23" transform="translate(-199.22917 475.1386) rotate(-88.91801)"/>
   <ellipse cx="242.08" cy="392.79" fill="#f0f0f4" id="svg_125" rx="25.25" ry="13.23" transform="translate(-198.21403 474.1794) rotate(-88.91801)"/>
   <ellipse cx="240" cy="375.81" fill="#636780" id="svg_126" rx="3.12" ry="1.56" transform="translate(-183.27358 455.43688) rotate(-88.91801)"/>
   <ellipse cx="233.23" cy="402.95" fill="#636780" id="svg_127" rx="3.12" ry="1.56" transform="translate(-217.04541 475.30009) rotate(-88.91801)"/>
   <ellipse cx="250.33" cy="390.29" fill="#636780" id="svg_128" rx="3.12" ry="1.56" transform="translate(-187.61082 479.97292) rotate(-88.91801)"/>
   <ellipse cx="245.41" cy="408.37" fill="#636780" id="svg_129" rx="3.12" ry="1.56" transform="translate(-210.51915 492.79832) rotate(-88.91801)"/>
   <ellipse cx="231.32" cy="386.03" fill="#636780" id="svg_130" rx="3.12" ry="1.56" transform="translate(-202.00996 456.7905) rotate(-88.91801)"/>
   <ellipse cx="239.66" cy="393.72" fill="#636780" id="svg_131" rx="7.4" ry="4.58" transform="translate(-201.51436 472.67247) rotate(-88.91801)"/>
   <path d="m508.24,259.53s-55.36,0.95 -127.51,19.28l127.51,-19.28z" id="svg_132" opacity="0.1" transform="translate(-43 -153.22928)"/>
   <path d="m246.1,157.69s3,0.54 1.36,4.48a27.4,27.4 0 0 0 -1.92,5.97s-3.03,1.51 -2.81,-3.66s3.37,-6.79 3.37,-6.79z" fill="#dce0ed" id="svg_133" transform="translate(-43 -153.22928)"/>
   <path d="m356.12,470.9a1.5,1.5 0 0 0 0,-3a1.5,1.5 0 0 0 0,3z" fill="#65617d" id="svg_137" transform="translate(-43 -153.22928)"/>
  </g>
  <path d="m1112.29,517.5a89.33,89.33 0 0 1 -178.33,7.67c-0.13,-1.45 -0.23,-2.9 -0.27,-4.38l0,-0.07q-0.07,-1.61 -0.07,-3.22a89.33,89.33 0 0 1 178.67,0z" fill="#65617d" id="svg_147" transform="translate(-43 -153.22928)"/>
  <path d="m1112.29,517.5a89.33,89.33 0 0 1 -178.33,7.67c-0.13,-1.45 -0.23,-2.9 -0.27,-4.38l0,-0.07q-0.07,-1.61 -0.07,-3.22a89.33,89.33 0 0 1 178.67,0z" id="svg_148" opacity="0.2" transform="translate(-43 -153.22928)"/>
  <circle cx="979.95" cy="364.27" fill="#dce0ed" id="svg_149" r="48.73"/>
  <circle cx="979.95" cy="364.27" fill="#65617d" id="svg_150" r="29.24"/>
  <path d="m635.38,517.5a89.33,89.33 0 0 1 -178.33,7.67c-0.13,-1.45 -0.23,-2.9 -0.27,-4.38l0,-0.07q-0.07,-1.61 -0.07,-3.22a89.33,89.33 0 0 1 178.67,0z" fill="#65617d" id="svg_151" transform="translate(-43 -153.22928)"/>
  <path d="m635.38,517.5a89.33,89.33 0 0 1 -178.33,7.67c-0.13,-1.45 -0.23,-2.9 -0.27,-4.38l0,-0.07q-0.07,-1.61 -0.07,-3.22a89.33,89.33 0 0 1 178.67,0z" id="svg_152" opacity="0.2" transform="translate(-43 -153.22928)"/>
  <circle cx="503.04" cy="364.27" fill="#dce0ed" id="svg_153" r="48.73"/>
  <circle cx="503.04" cy="364.27" fill="#65617d" id="svg_154" r="29.24"/>
  <path d="m1140.15,500.76l-29.8,-1.29l-27.22,-50.54l-95.9,-7.78l-46.65,60.91l2.59,16.85l-6.48,15.55l-304.55,2.59l0,-7.78l-2.59,0l-2.6,-11.66l23.33,0l-16.85,-18.14l-59.61,-50.54s-102.38,2.59 -103.68,0s5.84,-29.16 5.84,-29.16l44.06,-12.96l150.33,-11.67c33.05,-52.48 62.85,-77.11 62.85,-77.11l386.2,0l18.14,93.31l0,0.22l2.59,89.2z" fill="#444053" id="svg_155" transform="translate(-43 -153.22928)"/>
  <path d="m925.02,507.24s38.88,-72.57 68.69,-72.57l72.57,0s18.15,0 25.92,14.26l29.81,58.31l-23.33,0s-19.44,-54.43 -41.47,-55.72s-59.61,0 -59.61,0s-12.96,0 -20.74,15.55s-34.06,49.43 -34.06,49.43s-28.14,8.89 -17.78,-9.26z" fill="#33323d" id="svg_156" transform="translate(-43 -153.22928)"/>
  <polygon fill="#33323d" id="svg_157" points="1114 342.351 1065.252 342.351 1064.754 381.229 1114 369.566 1114 342.351"/>
  <path d="m452,472.25s2.59,-19.44 20.74,-27.21l119.22,-6.48s19.44,1.29 29.81,25.92l33.7,50.54l0,7.77l-37.59,0s-18.14,-68.68 -69.98,-66.09l-62.21,0s-14.25,0 -19.43,23.33l-14.26,-7.78z" fill="#33323d" id="svg_158" transform="translate(-43 -153.22928)"/>
  <path d="m731.93,325.81l0,0l397.85,0l0,0a14.26,14.26 0 0 0 -14.25,-14.26l-369.35,0a14.26,14.26 0 0 0 -14.25,14.26z" fill="#33323d" id="svg_159" transform="translate(-43 -153.22928)"/>
  <path d="m817.19,402.27l-110.1,0a7.44,7.44 0 0 1 -6.8,-10.47l17.42,-39.19a34.21,34.21 0 0 1 31.27,-20.32l66.89,0a9.37,9.37 0 0 1 9.37,9.37l0,52.56a8.05,8.05 0 0 1 -8.05,8.05z" fill="#6c63ff" id="svg_160" opacity="0.3" transform="translate(-43 -153.22928)"/>
  <rect fill="#6c63ff" height="69.98" id="svg_161" opacity="0.3" rx="5.54" width="107.56" x="810.75" y="179.06"/>
  <polygon fill="#33323d" id="svg_162" points="1094.561 258.113 1094.561 258.334 927.382 260.705 923.028 164.805 1076.417 164.805 1094.561 258.113"/>
  <rect fill="#6c63ff" height="69.98" id="svg_163" opacity="0.3" rx="5.54" width="123.12" x="941.64" y="179.06"/>
  <rect fill="#33323d" height="7.78" id="svg_164" rx="1.76" width="41.47" x="748.54" y="273.66"/>
  <rect fill="#33323d" height="7.78" id="svg_165" rx="1.76" width="41.47" x="867.77" y="273.66"/>
  <path d="m413.62,571.34c-6.2,6.74 -10.76,9.39 -10.55,2.28c0.65,-21.5 -37.12,-118.72 -37.12,-118.72l11.17,-0.84c24.38,42.05 33.45,85.26 36.5,117.28z" fill="none" id="svg_168" transform="translate(-43 -153.22928)"/>
  <path d="m466.92,618.25a53.75,53.75 0 0 1 -107.31,4.62c-0.08,-0.88 -0.13,-1.75 -0.16,-2.64l0,-0.04q-0.04,-0.97 -0.04,-1.94a53.76,53.76 0 0 1 107.51,0z" fill="#65617d" id="svg_169" transform="translate(-43 -153.22928)"/>
  <circle cx="370.16" cy="465.02" fill="#dce0ed" id="svg_170" r="29.32"/>
  <circle cx="370.16" cy="465.02" fill="#65617d" id="svg_171" r="17.59"/>
  <path d="m272,516.17l-129.45,2.61l0,-19.11c1.16,-15.36 16.91,-20.75 31.29,-22.44a89.77,89.77 0 0 1 33.44,2.51c27.46,7.27 44.98,8.68 53.58,8.82a8.22,8.22 0 0 1 7.95,6.68c0.41,2.19 0.81,4.56 1.19,6.91c0.29,1.84 0.56,3.65 0.81,5.34c0.71,4.89 1.19,8.68 1.19,8.68z" fill="#65617d" id="svg_172" transform="translate(-43 -153.22928)"/>
  <path d="m332.26,468.5l-268.9,0a10.59,10.59 0 0 1 -9.8,-6.34c-2.03,-4.84 0.81,-7.93 3.83,-9.74a30.46,30.46 0 0 0 13.24,-16.2c2.87,-8.44 5.67,-21.73 6.77,-42.43c1.13,-21.42 8.89,-32.01 17.27,-37.14l0,0c10.83,-6.62 22.69,-4.13 22.69,-4.13l109.03,0.87a20.96,20.96 0 0 1 5.32,3.47c9.72,9.05 -4.45,20.85 -4.45,20.85c-30.41,32.14 -7.39,64.72 -7.39,64.72l55.79,0a51.34,51.34 0 0 0 29.22,-8.94c7.54,-5.21 10.46,-10.25 11.59,-13.3c0.86,-2.33 1.73,-4.66 2.77,-6.91c14.64,-31.74 -3.01,-83.37 -10.63,-102.68c-1.89,-4.8 -3.16,-7.6 -3.16,-7.6l17.5,-1.33l11.06,-0.84l0.11,0c24.38,42.05 33.45,85.26 36.49,117.28c0.29,3.02 0.53,5.94 0.72,8.75a39.1,39.1 0 0 1 -39.07,41.64z" fill="#6c63ff" id="svg_173" transform="matrix(1 0 0 1 0 0)"/>
  <path d="m270.81,507.49l-128.26,0l0,-5.34l127.45,0c0.29,1.84 0.56,3.65 0.81,5.34z" id="svg_174" opacity="0.1" transform="translate(-43 -153.22928)"/>
  <path d="m274.71,510.09l-136.01,0a2.57,2.57 0 0 1 -1.03,-0.21c10.83,-6.62 22.69,-4.13 22.69,-4.13l109.03,0.87a20.96,20.96 0 0 1 5.32,3.47z" id="svg_175" opacity="0.1" transform="translate(-43 -153.22928)"/>
  <path d="m413.62,571.34c-6.2,6.74 -10.76,9.39 -10.55,2.28c0.65,-21.5 -37.12,-118.72 -37.12,-118.72l11.17,-0.84c24.38,42.05 33.45,85.26 36.5,117.28z" id="svg_177" opacity="0.1" transform="translate(-43 -153.22928)"/>
  <path d="m466.59,612.36c-6.41,1.54 -14.35,3.11 -24.14,4.54q-5.45,0.8 -11.7,1.54c-9.99,1.18 -21.54,2.22 -34.88,3.01q-5.67,0.35 -11.78,0.62q-11.43,0.52 -24.48,0.8l-0.16,-2.64l0,-0.04c12.15,-4.91 31.27,-18 34.35,-52.09a53.78,53.78 0 0 1 72.79,44.26z" id="svg_178" opacity="0.1" transform="translate(-43 -153.22928)"/>
  <path d="m349.32,621.73s61.7,-6.69 40.46,-100.72c0,0 30.49,27.95 49.45,43.49s52.77,36.95 52.77,36.95s-20.19,18.87 -142.68,20.28z" fill="#6c63ff" id="svg_179" transform="translate(-43 -153.22928)"/>
  <path d="m349.32,621.73s61.7,-6.69 40.46,-100.72c0,0 30.49,27.95 49.45,43.49s52.77,36.95 52.77,36.95s-20.19,18.87 -142.68,20.28z" fill="#fff" id="svg_180" opacity="0.1" transform="translate(-43 -153.22928)"/>
  <circle cx="141.47" cy="465.02" fill="#65617d" id="svg_181" r="53.75"/>
  <circle cx="141.47" cy="465.02" fill="#dce0ed" id="svg_182" r="29.32"/>
  <circle cx="141.47" cy="465.02" fill="#65617d" id="svg_183" r="17.59"/>
  <path d="m244.74,602.11c0,-34.71 -27.57,-62.86 -61.57,-62.86s-61.58,28.15 -61.58,62.86c0,1.47 0.06,2.92 0.15,4.36l122.85,0c0.1,-1.44 0.15,-2.89 0.15,-4.36z" id="svg_184" opacity="0.1" transform="translate(-43 -153.22928)"/>
  <path d="m242.46,601.03c0,-33.43 -26.55,-60.53 -59.29,-60.53s-59.3,27.1 -59.3,60.53c0,1.41 0.05,2.81 0.15,4.19l118.29,0c0.1,-1.38 0.15,-2.78 0.15,-4.19z" fill="#6c63ff" id="svg_185" transform="translate(-43 -153.22928)"/>
  <path d="m242.46,601.03c0,0.97 -0.03,1.93 -0.07,2.89c-0.02,0.44 -0.05,0.87 -0.07,1.3l-118.3,0c-0.03,-0.43 -0.06,-0.86 -0.08,-1.3c-0.04,-0.96 -0.07,-1.92 -0.07,-2.89c0,-33.43 26.55,-60.53 59.3,-60.53s59.29,27.1 59.29,60.53z" fill="#fff" id="svg_186" opacity="0.1" transform="translate(-43 -153.22928)"/>
  <path d="m242.39,603.92c-0.02,0.44 -0.05,0.87 -0.07,1.3l-118.3,0c-0.03,-0.43 -0.06,-0.86 -0.08,-1.3l118.45,0z" id="svg_187" opacity="0.1" transform="translate(-43 -153.22928)"/>
  <ellipse cx="394.92" cy="496.64" id="svg_188" opacity="0.1" rx="7.8" ry="19.65" transform="translate(-212.55202 53.61029) rotate(-24.33287)"/>
  <ellipse cx="395.57" cy="495.99" fill="#dce0ed" id="svg_189" rx="7.8" ry="19.65" transform="translate(-212.22567 53.82088) rotate(-24.33287)"/>
  <path d="m377.01,454.06l0,10.21l-19.87,0a34.24,34.24 0 0 1 -5.53,-0.44c-1.89,-4.8 -3.16,-7.6 -3.16,-7.6l17.5,-1.33l11.06,-0.84z" id="svg_190" opacity="0.1" transform="translate(-43 -153.22928)"/>
  <path d="m377.01,462.97l-19.87,0c-17.46,0 -31.6,-13.06 -31.6,-29.17l0,-2.7c0,-16.11 14.14,-29.17 31.6,-29.17l19.87,1.8l0,59.24z" fill="#6c63ff" id="svg_191" transform="translate(-43 -153.22928)"/>
  <path d="m344.27,419.2s11.89,6.35 5.05,17.1c0,0 -8.39,13.77 -21.59,12.46l-4.8,-29.56s15.8,-1.47 21.34,0z" fill="#6c63ff" id="svg_192" transform="translate(-43 -153.22928)"/>
  <path d="m339.7,418.62a12.64,12.64 0 0 1 9.66,5.1c2.12,2.93 3.38,7.21 -0.04,12.58c0,0 -8.39,13.77 -21.59,12.46l-4.8,-29.56a147.02,147.02 0 0 1 16.77,-0.58z" id="svg_193" opacity="0.1" transform="translate(-43 -153.22928)"/>
  <path d="m333.36,250.51l0,0a15.96,15.96 0 0 1 15.96,15.96l0,27.31a15.96,15.96 0 0 1 -15.96,15.96l0,0a0,0 0 0 1 0,0l0,-59.23a0,0 0 0 1 0,0z" id="svg_194" opacity="0.1"/>
  <path d="m334.01,250.51l0,0a15.96,15.96 0 0 1 15.96,15.96l0,27.31a15.96,15.96 0 0 1 -15.96,15.96l0,0a0,0 0 0 1 0,0l0,-59.23a0,0 0 0 1 0,0z" fill="#dce0ed" id="svg_195"/>
  <ellipse cx="278.55" cy="281.34" fill="#6c63ff" id="svg_196" rx="13.2" ry="16.06"/>
 </g>
</svg>