<svg xmlns="http://www.w3.org/2000/svg" viewBox="139.536 125.396 168.892 168.892" width="168.892" height="168.892">
  <circle id="baf12095-0797-4180-a98d-6422936d747a" data-name="Ellipse 44" cx="223.982" cy="209.842" r="84.446" fill="#C253B8"></circle>
  <path id="b582f34e-fd02-4670-b1d8-d23f069ed737-114" data-name="Path 395" d="M 215.614 242.056 C 213.714 242.059 211.865 241.445 210.345 240.305 L 210.251 240.234 L 190.405 225.053 C 185.017 220.922 186.121 212.508 192.392 209.907 C 195.302 208.7 198.636 209.137 201.136 211.054 L 213.991 220.912 L 244.367 181.283 C 247.33 177.419 252.863 176.688 256.727 179.65 L 256.73 179.652 L 256.541 179.914 L 256.735 179.652 C 260.594 182.618 261.324 188.149 258.366 192.015 L 222.637 238.606 C 220.961 240.782 218.368 242.054 215.622 242.046 L 215.614 242.056 Z" fill="#fff"></path>
</svg>