<?xml version="1.0"?>
<svg width="857.75789" height="609.99815" xmlns="http://www.w3.org/2000/svg" xmlns:svg="http://www.w3.org/2000/svg">
 <g class="layer">
  <title>Layer 1</title>
  <path d="m305.89,136.41c-3.4,0 -6.15,2.76 -6.16,6.16l0,107.89c0.01,3.39 2.76,6.15 6.16,6.15l152.61,0c3.4,0 6.15,-2.76 6.16,-6.15l0,-107.89c-0.01,-3.4 -2.76,-6.16 -6.16,-6.16l-152.61,0z" fill="#e6e6e6" id="svg_18"/>
  <path d="m403.62,251.36l-93.42,0c-3.65,0 -6.62,-2.97 -6.62,-6.62l0,-97.86c0,-3.66 2.97,-6.62 6.62,-6.63l143.99,0c3.66,0.01 6.62,2.97 6.63,6.63l0,47.28c-0.04,31.58 -25.63,57.17 -57.2,57.2z" fill="#fff" id="svg_19"/>
  <path d="m367.02,167.33l-22.19,0c-1.17,0 -2.12,-0.94 -2.12,-2.12s0.95,-2.12 2.12,-2.12l22.19,0c1.18,0 2.12,0.95 2.12,2.12s-0.94,2.12 -2.12,2.12l0,0z" fill="#6c63ff" id="svg_20"/>
  <path d="m416.78,176l-71.95,0c-1.17,0 -2.12,-0.94 -2.12,-2.12s0.95,-2.12 2.12,-2.12l71.95,0c1.18,0 2.12,0.95 2.12,2.12s-0.94,2.12 -2.12,2.12z" fill="#e6e6e6" id="svg_21"/>
  <path d="m416.78,185.96l-71.95,0c-1.17,0 -2.12,-0.95 -2.12,-2.12s0.95,-2.12 2.12,-2.12l71.95,0c1.18,0 2.12,0.95 2.12,2.12s-0.94,2.12 -2.12,2.12z" fill="#e6e6e6" id="svg_22"/>
  <path d="m416.78,195.91l-71.95,0c-1.17,0 -2.12,-0.95 -2.12,-2.12s0.95,-2.12 2.12,-2.12l71.95,0c1.18,0 2.12,0.95 2.12,2.12s-0.94,2.12 -2.12,2.12z" fill="#e6e6e6" id="svg_23"/>
  <path d="m416.78,205.86l-71.95,0c-1.17,0 -2.12,-0.95 -2.12,-2.12s0.95,-2.12 2.12,-2.12l71.95,0c1.18,0 2.12,0.95 2.12,2.12s-0.94,2.12 -2.12,2.12z" fill="#e6e6e6" id="svg_24"/>
  <path d="m474.48,211.74l-30.12,0c-5.99,0 -10.85,4.85 -10.85,10.84l0,0c0,5.99 -4.86,10.85 -10.85,10.85l-100.43,0c-5.99,0 -10.84,-4.86 -10.84,-10.85l0,0l-1.99,-10.99l0.13,0.15l-0.13,-0.15l-18.2,-23.21c-1.21,-1.57 -3.09,-2.48 -5.06,-2.46l-34.14,0c-3.55,0 -6.43,2.88 -6.43,6.43l-0.71,19.24l-12.9,0c-11.4,0 -20.65,9.24 -20.65,20.64l0,134.44c0,10.12 8.2,18.32 18.32,18.32l244.85,0c10.11,-0.01 18.3,-8.2 18.31,-18.32l0,-136.62c0,-10.12 -8.2,-18.31 -18.31,-18.31l0,0z" fill="#e6e6e6" id="svg_25"/>
  <path d="m309.41,211.09l-63.84,0l0,-19.24c0,-3.55 2.88,-6.42 6.43,-6.43l34.14,0c1.97,-0.01 3.85,0.9 5.06,2.46l18.21,23.21z" fill="#ccc" id="svg_26"/>
  <path d="m126.34,169.68l-9.87,0c-0.68,0.01 -1.24,0.56 -1.23,1.24c0,0.68 0.55,1.23 1.23,1.23l9.87,0c0.68,0 1.24,-0.55 1.24,-1.23s-0.56,-1.23 -1.24,-1.24l0,0z" fill="#fff" id="svg_55"/>
  <path d="m126.34,313.68l-9.87,0c-0.68,0.01 -1.24,0.56 -1.23,1.24c0,0.68 0.55,1.23 1.23,1.23l9.87,0c0.68,0 1.24,-0.55 1.24,-1.23s-0.56,-1.23 -1.24,-1.24l0,0z" fill="#fff" id="svg_57"/>
  <path d="m126.34,457.68l-9.87,0c-0.68,0.01 -1.24,0.56 -1.23,1.24c0,0.68 0.55,1.23 1.23,1.23l9.87,0c0.68,0 1.24,-0.55 1.24,-1.23c0,-0.68 -0.56,-1.23 -1.24,-1.24l0,0z" fill="#fff" id="svg_59"/>
 </g>
</svg>