<?xml version="1.0" encoding="utf-8"?>
<svg data-name="Layer 1" width="951.23547" height="632.16225" viewBox="0 0 951.23547 632.16225" xmlns="http://www.w3.org/2000/svg">
  <path d="M 264.017 117.593 C 222.116 117.593 195.928 162.952 216.878 199.239 C 226.601 216.08 244.57 226.454 264.017 226.454 L 669.655 226.454 C 711.556 226.454 737.744 181.095 716.793 144.808 C 707.07 127.967 689.101 117.593 669.655 117.593 L 264.017 117.593 Z" fill="#e5e5e5"/>
  <path d="M 264.017 128.608 C 230.596 128.608 209.708 164.788 226.418 193.731 C 234.173 207.163 248.506 215.438 264.017 215.438 L 669.655 215.438 C 703.076 215.438 723.964 179.259 707.254 150.316 C 699.498 136.883 685.166 128.608 669.655 128.608 L 264.017 128.608 Z" fill="#fff"/>
  <path d="M 744.693 121.504 C 739.914 123.5 734.927 121.313 732.836 116.305 C 730.713 111.22 732.696 106.058 737.551 104.031 C 742.407 102.003 747.305 104.195 749.462 109.362 C 751.587 114.451 749.626 119.444 744.693 121.504 Z M 735.538 94.022 L 731.739 95.609 C 729.771 96.421 727.509 95.591 726.532 93.699 L 726.345 93.332 C 722.256 85.958 721.788 76.997 724.961 66.711 C 727.9 57.484 729.12 50.994 726.665 45.115 C 723.827 38.317 717.766 36.188 710.037 39.273 C 707.039 40.524 706.085 40.504 703.726 42.845 C 702.689 43.886 701.274 44.461 699.805 44.438 C 698.385 44.421 697.032 43.828 696.058 42.795 C 694.13 40.75 694.114 37.562 696.021 35.498 C 699.986 31.347 704.769 28.063 710.067 25.854 C 726.673 18.919 735.033 29.157 738.859 38.318 C 742.601 47.28 740.496 55.594 737.114 66.362 C 734.28 75.309 734.445 81.939 737.664 88.532 C 738.644 90.633 737.678 93.128 735.538 94.022 Z" fill="#C253B8"/>
  <path d="M 353.617 197.983 L 272.91 197.983 C 271.413 197.993 270.467 196.38 271.207 195.079 C 271.554 194.467 272.206 194.09 272.91 194.095 L 353.617 194.095 C 355.113 194.105 356.038 195.732 355.281 197.023 C 354.934 197.613 354.302 197.978 353.617 197.983 Z" fill="#C253B8"/>
  <path d="M 455.998 198.631 L 375.291 198.631 C 373.795 198.641 372.849 197.028 373.588 195.727 C 373.936 195.114 374.588 194.738 375.291 194.743 L 455.998 194.743 C 457.495 194.733 458.441 196.347 457.702 197.648 C 457.354 198.26 456.702 198.636 455.998 198.631 Z" fill="#C253B8"/>
  <path d="M 558.38 199.279 L 477.673 199.279 C 476.177 199.269 475.252 197.642 476.009 196.352 C 476.356 195.761 476.988 195.396 477.673 195.391 L 558.38 195.391 C 559.877 195.381 560.823 196.995 560.083 198.296 C 559.736 198.908 559.084 199.284 558.38 199.279 L 558.38 199.279 Z" fill="#C253B8"/>
  <path d="M 660.762 199.927 L 580.055 199.927 C 578.558 199.917 577.634 198.29 578.391 197 C 578.738 196.409 579.37 196.044 580.055 196.039 L 660.762 196.039 C 662.258 196.049 663.182 197.676 662.425 198.966 C 662.079 199.557 661.447 199.922 660.762 199.927 Z" fill="#C253B8"/>
  <circle cx="313.086" cy="165.093" r="15" fill="#C253B8"/>
  <circle cx="416.086" cy="165.093" r="15" fill="#C253B8"/>
  <circle cx="519.086" cy="165.093" r="15" fill="#C253B8"/>
  <circle cx="622.086" cy="165.093" r="15" fill="#C253B8"/>
</svg>