<?xml version="1.0" encoding="utf-8"?>
<svg data-name="Layer 1" width="951.23547" height="632.16225" viewBox="0 0 951.23547 632.16225" xmlns="http://www.w3.org/2000/svg">
  <path d="M518.09691,495.47812a38.97361,38.97361,0,0,1-11.76083-49.07724c.85125-1.66563,3.47954-.42109,2.62716,1.24676a36.0887,36.0887,0,0,0,11.03334,45.62971c1.51533,1.097-.393,3.29149-1.89967,2.20077Z" transform="translate(-124.38226 -133.06928)" fill="#fff"/>
  <path d="M499.22208,573.01552A75.11847,75.11847,0,0,0,546.7827,545.9063c1.17577-1.45711,3.37512.44432,2.20077,1.89967A78.13447,78.13447,0,0,1,499.435,575.915c-1.85547.26565-2.05831-2.63524-.21291-2.89944Z" transform="translate(-124.38226 -133.06928)" fill="#fff"/>
  <path d="M567.94141,648.63076c-13.912-67.2669-31.302-89.69385-31.302-89.69385l-6.64343-5.15185-7.98926-6.20581.03858-.79785-1.8949-.64411-.44513-.34576-.72943-.56006-.11731.126-.24768.25647-36.15234-12.2887-45.86536-15.57934L415.35455,490.14a36.7343,36.7343,0,0,0-29.38672-14.33386l-67.82916.50189a36.73449,36.73449,0,0,0-24.70972,9.80127l-44.58306,41.35412-69.469,33.17786-.11725-.11725-.72949.52106-10.73358,5.13232.44293,2.30561-6.64343,4.79376s-17.39,20.868-31.30206,83.459c-3.53907,15.926-5.28113,50.08979-5.90992,92.1883a16.06908,16.06908,0,0,0,16.06244,16.30737H511.49408v-.00006H557.8056a16.0717,16.0717,0,0,0,16.06262-16.29071C573.25409,703.131,571.51269,665.902,567.94141,648.63076Z" fill="#3f3d56" transform="translate(-124.38226 -133.06928)"/>
  <path d="M615.54847,191.73153a54.43073,54.43073,0,1,0,0,108.86146H1021.187a54.43073,54.43073,0,0,0,0-108.86146Z" transform="translate(-124.38226 -133.06928)" fill="#e5e5e5"/>
  <path d="M615.54847,202.74727a43.415,43.415,0,1,0,0,86.83H1021.187a43.415,43.415,0,0,0,0-86.83Z" fill="#fff" transform="translate(-124.38226 -133.06928)"/>
  <circle id="e096411a-cdc3-4e6d-bbd4-4630e1fee17e" data-name="ab6171fa-7d69-4734-b81c-8dff60f9761b" cx="238.3229" cy="228.39206" r="88.86282" fill="#9e616a"/>
  <path d="M339.97228,445.973q-.56945-1.25376-1.13574-2.51618c.14551.00466.28954.02559.435.0294Z" transform="translate(-124.38226 -133.06928)" fill="#2f2e41"/>
  <path d="M271.37112,276.63954c4.49445-3.5853,9.74736-6.88419,15.49373-6.69877,5.74613.18519,11.57324,5.37507,10.38275,10.99974a91.31784,91.31784,0,0,1,109.89524-41.20778c14.28183,5.03874,28.28737,15.1192,31.56809,29.90415.8422,3.79533,1.023,7.95689,3.39274,11.03885,2.98786,3.88573,8.70455,4.76475,13.41179,3.3978q.07062-.0205.141-.04154a4.1986,4.1986,0,0,1,5.07324,5.92695l-4.041,7.5365a32.38317,32.38317,0,0,0,15.428-.3281,4.195,4.195,0,0,1,4.45469,6.52819c-13.32473,18.29415-35.58607,30.10755-58.30327,29.96873-16.14591-.09846-32.45814-5.66309-48.17179-1.95012a41.84383,41.84383,0,0,0-28.14382,58.74019c-4.82733-5.28005-14.159-4.03-19.097,1.147-4.93774,5.177-6.21612,12.90385-5.71853,20.04085.76077,10.91577,5.03759,21.20144,9.5463,31.21221-37.80123-1.19-73.555-27.707-85.58977-63.57189C229.00827,343.26738,241.674,300.32986,271.37112,276.63954Z" transform="translate(-124.38226 -133.06928)" fill="#2f2e41"/>
  <polygon points="87.464 495.253 112.388 630.86 127.343 632.162 87.464 495.253" opacity="0.2"/>
  <polygon points="362.007 485.026 337.083 630.762 322.128 632.162 362.007 485.026" opacity="0.2"/>
  <path d="M292.62933,231.00135c-4.77882,1.99547-9.76532-.19144-11.85656-5.19961-2.12322-5.08476-.14017-10.24648,4.71525-12.27393,4.85588-2.02764,9.75359.1646,11.911,5.33137C299.52417,223.94845,297.5627,228.94135,292.62933,231.00135Zm-9.15419-27.482-3.79972,1.58663a4.09911,4.09911,0,0,1-5.20612-1.90948l-.1879-.36761c-4.08846-7.37337-4.5566-16.33467-1.384-26.62094,2.939-9.22731,4.1597-15.71683,1.70477-21.596-2.83836-6.79741-8.8993-8.92671-16.62838-5.84218-2.99769,1.25173-3.95159,1.23179-6.31064,3.572a5.4161,5.4161,0,0,1-3.92122,1.59344,5.2354,5.2354,0,0,1-3.74713-1.643,5.34757,5.34757,0,0,1-.03684-7.29733,41.53525,41.53525,0,0,1,14.04574-9.64413c16.60647-6.93429,24.96626,3.3032,28.79182,12.46479,3.74183,8.96108,1.637,17.27546-1.745,28.04341-2.83416,8.94752-2.66908,15.57751.55033,22.16977a4.08088,4.08088,0,0,1-2.12565,5.49059Z" transform="translate(-124.38226 -133.06928)" style="fill: rgb(194, 83, 184);"/>
  <path d="M705.14883,272.122h-80.707a1.944,1.944,0,1,1,0-3.88791h80.707a1.944,1.944,0,0,1,0,3.88791Z" transform="translate(-124.38226 -133.06928)" style="fill: rgb(194, 83, 184);"/>
  <path d="M807.53044,272.76994h-80.707a1.944,1.944,0,1,1,0-3.88791h80.707a1.944,1.944,0,1,1,0,3.88791Z" transform="translate(-124.38226 -133.06928)" style="fill: rgb(194, 83, 184);"/>
  <path d="M909.91205,273.41793H829.205a1.944,1.944,0,0,1,0-3.88791h80.707a1.944,1.944,0,1,1,0,3.88791Z" transform="translate(-124.38226 -133.06928)" style="fill: rgb(194, 83, 184);"/>
  <path d="M1012.29367,274.06591h-80.707a1.944,1.944,0,0,1,0-3.88791h80.707a1.944,1.944,0,0,1,0,3.88791Z" transform="translate(-124.38226 -133.06928)" style="fill: rgb(194, 83, 184);"/>
  <circle cx="540.23547" cy="106.16225" r="15" style="fill: rgb(194, 83, 184);"/>
  <circle cx="643.23547" cy="106.16225" r="15" style="fill: rgb(194, 83, 184);"/>
  <circle cx="746.23547" cy="106.16225" r="15" style="fill: rgb(194, 83, 184);"/>
  <circle cx="849.23547" cy="106.16225" r="15" style="fill: rgb(194, 83, 184);"/>
</svg>