<?xml version="1.0" encoding="utf-8"?>
<svg viewBox="191.29 191.791 540.807 202.882" xmlns="http://www.w3.org/2000/svg">
  <path d="M 245.802 285.812 C 203.901 285.812 177.713 331.171 198.663 367.458 C 208.386 384.299 226.355 394.673 245.802 394.673 L 651.44 394.673 C 693.341 394.673 719.529 349.314 698.578 313.027 C 688.855 296.186 670.886 285.812 651.44 285.812 L 245.802 285.812 Z" fill="#e5e5e5"/>
  <path d="M 245.802 296.827 C 212.381 296.827 191.493 333.007 208.203 361.95 C 215.958 375.382 230.291 383.657 245.802 383.657 L 651.44 383.657 C 684.861 383.657 705.749 347.478 689.039 318.535 C 681.283 305.102 666.951 296.827 651.44 296.827 L 245.802 296.827 Z" fill="#fff"/>
  <path d="M 726.478 289.723 C 721.699 291.719 716.712 289.532 714.621 284.524 C 712.498 279.439 714.481 274.277 719.336 272.25 C 724.192 270.222 729.09 272.414 731.247 277.581 C 733.372 282.67 731.411 287.663 726.478 289.723 Z M 717.323 262.241 L 713.524 263.828 C 711.556 264.64 709.294 263.81 708.317 261.918 L 708.13 261.551 C 704.041 254.177 703.573 245.216 706.746 234.93 C 709.685 225.703 710.905 219.213 708.45 213.334 C 705.612 206.536 699.551 204.407 691.822 207.492 C 688.824 208.743 687.87 208.723 685.511 211.064 C 684.474 212.105 683.059 212.68 681.59 212.657 C 680.17 212.64 678.817 212.047 677.843 211.014 C 675.915 208.969 675.899 205.781 677.806 203.717 C 681.771 199.566 686.554 196.282 691.852 194.073 C 708.458 187.138 716.818 197.376 720.644 206.537 C 724.386 215.499 722.281 223.813 718.899 234.581 C 716.065 243.528 716.23 250.158 719.449 256.751 C 720.429 258.852 719.463 261.347 717.323 262.241 Z" fill="#C253B8"/>
  <path d="M 335.402 366.202 L 254.695 366.202 C 253.198 366.212 252.252 364.599 252.992 363.298 C 253.339 362.686 253.991 362.309 254.695 362.314 L 335.402 362.314 C 336.898 362.324 337.823 363.951 337.066 365.242 C 336.719 365.832 336.087 366.197 335.402 366.202 Z" fill="#C253B8"/>
  <path d="M 437.783 366.85 L 357.076 366.85 C 355.58 366.86 354.634 365.247 355.373 363.946 C 355.721 363.333 356.373 362.957 357.076 362.962 L 437.783 362.962 C 439.28 362.952 440.226 364.566 439.487 365.867 C 439.139 366.479 438.487 366.855 437.783 366.85 Z" fill="#C253B8"/>
  <path d="M 540.165 367.498 L 459.458 367.498 C 457.962 367.488 457.037 365.861 457.794 364.571 C 458.141 363.98 458.773 363.615 459.458 363.61 L 540.165 363.61 C 541.662 363.6 542.608 365.214 541.868 366.515 C 541.521 367.127 540.869 367.503 540.165 367.498 Z" fill="#C253B8"/>
  <path d="M 642.547 368.146 L 561.84 368.146 C 560.343 368.136 559.419 366.509 560.176 365.219 C 560.523 364.628 561.155 364.263 561.84 364.258 L 642.547 364.258 C 644.043 364.268 644.967 365.895 644.21 367.185 C 643.864 367.776 643.232 368.141 642.547 368.146 Z" fill="#C253B8"/>
  <circle cx="294.871" cy="333.312" r="15" fill="#C253B8"/>
  <circle cx="397.871" cy="333.312" r="15" fill="#C253B8"/>
  <circle cx="500.871" cy="333.312" r="15" fill="#C253B8"/>
  <circle cx="603.871" cy="333.312" r="15" fill="#C253B8"/>
</svg>