<?xml version="1.0"?>
<svg width="598.11121" height="535.11426" xmlns="http://www.w3.org/2000/svg" xmlns:svg="http://www.w3.org/2000/svg" data-name="Layer 1">
 <g class="layer">
  <title>Layer 1</title>
  <path d="m108.36,147.08a4.59,4.59 0 0 0 -3.19,5.65l76.72,273.98a4.59,4.59 0 0 0 5.66,3.18l282.81,-79.19a4.59,4.59 0 0 0 3.18,-5.65l-76.71,-273.98a4.59,4.59 0 0 0 -5.66,-3.18l-282.81,79.19z" fill="#e6e6e6" id="svg_1"/>
  <path d="m191.1,416.96l269.51,-75.47l-72.99,-260.67l-269.51,75.47l72.99,260.67z" fill="#fff" id="svg_2"/>
  <path d="m153.74,191.09c-1.79,0.51 -2.54,3.49 -1.65,6.66s3.07,5.34 4.87,4.83l122.92,-34.41c1.8,-0.51 2.54,-3.49 1.65,-6.66s-3.07,-5.34 -4.87,-4.83l-122.92,34.41z" fill="#e6e6e6" id="svg_3"/>
  <path d="m163.64,226.45c-1.8,0.5 -2.54,3.49 -1.65,6.65s3.07,5.34 4.87,4.84l122.92,-34.42c1.79,-0.51 2.54,-3.49 1.65,-6.66s-3.07,-5.34 -4.87,-4.83l-122.92,34.42z" fill="#e6e6e6" id="svg_4"/>
  <path d="m173.43,261.39c-1.8,0.5 -2.54,3.49 -1.66,6.66s3.08,5.33 4.87,4.83l122.92,-34.42c1.8,-0.5 2.54,-3.49 1.65,-6.66s-3.07,-5.33 -4.87,-4.83l-122.91,34.42z" fill="#e6e6e6" id="svg_5"/>
  <path d="m183.33,296.74c-1.8,0.51 -2.54,3.49 -1.66,6.66s3.08,5.33 4.87,4.83l122.92,-34.42c1.8,-0.5 2.54,-3.49 1.65,-6.65s-3.07,-5.34 -4.87,-4.84l-122.91,34.42z" fill="#e6e6e6" id="svg_6"/>
  <path d="m339.04,139.62a5.97,5.97 0 1 0 3.22,11.49l22.98,-6.44a5.97,5.97 0 0 0 -3.22,-11.49l-22.98,6.44z" fill="#e6e6e6" id="svg_7"/>
  <path d="m348.75,174.28a5.97,5.97 0 1 0 3.21,11.49l22.98,-6.43a5.97,5.97 0 0 0 -3.21,-11.49l-22.98,6.43z" fill="#e6e6e6" id="svg_8"/>
  <path d="m358.45,208.95a5.97,5.97 0 1 0 3.22,11.49l22.98,-6.43a5.97,5.97 0 0 0 -3.22,-11.49l-22.98,6.43z" fill="#e6e6e6" id="svg_9"/>
  <path d="m368.16,243.62a5.97,5.97 0 0 0 3.22,11.49l22.98,-6.44a5.97,5.97 0 0 0 -3.22,-11.49l-22.98,6.44z" fill="#e6e6e6" id="svg_10"/>
  <path d="m377.43,303.71a7.6,7.6 0 1 0 4.1,14.64l29.28,-8.2a7.6,7.6 0 0 0 -4.1,-14.64l0,0l-29.28,8.2z" fill="#6c63ff" id="svg_11"/>
 </g>
</svg>